<svg width="215" height="181" viewBox="0 0 215 181" fill="none" xmlns="http://www.w3.org/2000/svg">
<g clip-path="url(#clip0_28_715)">
<path d="M88.9767 167.392L90.019 169.062H68.5021V163.37C68.5021 162.849 68.9222 162.431 69.4474 162.431C69.5686 162.431 69.6818 162.455 69.7949 162.495C69.9645 162.56 70.11 162.672 70.215 162.817L71.3381 164.358C71.6775 164.815 72.2108 165.088 72.7845 165.088H74.7398C75.3539 165.088 75.9195 164.775 76.2508 164.262L77.1315 162.873C77.3012 162.6 77.6082 162.431 77.9314 162.431H78.1657C78.4081 162.431 78.6424 162.519 78.8202 162.688L80.0322 163.828C80.9937 164.735 82.2461 165.273 83.5712 165.353L85.7447 165.474C87.0779 165.546 88.2818 166.261 88.9848 167.384L88.9767 167.392Z" fill="#2C163A"/>
<path d="M80.2503 64.5052L84.8882 68.174L85.2438 68.455L73.3985 82.8653C71.9684 84.6074 69.8191 85.619 67.5567 85.619H52.2532V95.6781L64.454 95.8948V104.091H42.3391C39.6566 104.091 37.1437 102.791 35.6004 100.607L28.4335 90.4518L26.5104 87.7303C24.1026 84.3264 24.9914 79.614 28.4739 77.3019L36.3438 72.8223C37.782 74.9015 40.3029 76.194 42.8401 76.17C43.842 76.1539 44.8601 75.9371 45.6923 75.3993C46.5245 74.8534 46.9851 74.2513 47.0982 73.5528L67.7425 75.9371L79.5393 63.9352L80.2584 64.5052H80.2503Z" fill="#61AE45"/>
<path d="M52.2452 104.075V114.416H28.4254V90.4438L35.5924 100.599C37.1356 102.783 39.6485 104.083 42.331 104.083H52.2452V104.075Z" fill="#61AE45"/>
<path d="M48.8516 61.2378C48.9243 61.3342 48.9566 61.4546 48.9566 61.575C48.9566 61.7275 48.9001 61.864 48.8031 61.9764C48.8193 61.7275 48.8354 61.4867 48.8516 61.2378Z" fill="#2C163A"/>
<path d="M48.3667 60.989C48.5687 60.989 48.7465 61.0853 48.8515 61.2378C48.8434 61.4867 48.8273 61.7275 48.803 61.9764C48.698 62.0968 48.5364 62.1691 48.3667 62.1691C48.1647 62.1691 47.9789 62.0647 47.8738 61.9122C47.8092 61.8158 47.7769 61.7034 47.7769 61.583C47.7769 61.2619 48.0435 60.997 48.3667 60.997V60.989Z" fill="#2C163A"/>
<path d="M44.3752 61.575C44.6984 61.575 44.9651 61.8399 44.9651 62.161C44.9651 62.4822 44.6984 62.7471 44.3752 62.7471C44.052 62.7471 43.7854 62.4822 43.7854 62.161C43.7854 61.8399 44.052 61.575 44.3752 61.575Z" fill="#2C163A"/>
<path d="M38.6789 56.3166C38.6789 57.858 38.4365 59.3994 37.9517 60.8605L37.6447 60.8846C37.1922 60.7802 36.6751 60.9087 36.3519 61.2378C36.3195 61.2699 36.2953 61.3021 36.2711 61.3342L35.9963 61.0692C34.5419 59.8329 33.4107 58.0989 33.2896 56.2043C33.1684 54.3016 34.2268 52.2785 36.0287 51.6283C36.9498 51.2911 38.0083 51.3152 38.8486 50.7934C39.5435 50.3679 39.9878 49.6213 40.6827 49.2038C41.6523 48.6178 42.8966 48.7944 43.9955 49.0513C45.5873 49.4206 47.2033 49.9584 48.4314 51.0342C49.6677 52.1019 50.4514 53.8199 50.0232 55.3934H50.104C49.8373 55.9795 49.3768 56.4531 48.8354 56.8064C48.6092 56.9509 48.3668 57.0793 48.1082 57.1837C47.2598 57.5289 46.3306 57.6252 45.4095 57.6493C43.0986 57.6975 40.7797 57.2399 38.6627 56.3247L38.6789 56.3166Z" fill="#2C163A"/>
<path d="M14.6167 153.062C15.1177 153.215 15.3924 153.745 15.2389 154.243C15.1985 154.355 15.15 154.467 15.0692 154.556C14.9561 154.692 14.8106 154.805 14.6409 154.861L12.831 155.471C12.2897 155.655 11.8695 156.081 11.6998 156.627L11.1262 158.481C10.9403 159.059 11.0777 159.702 11.4736 160.159L12.5482 161.404C12.7583 161.652 12.831 161.982 12.7341 162.295L12.6613 162.519C12.5886 162.752 12.427 162.945 12.217 163.065L10.7626 163.876C9.60712 164.518 8.71024 165.554 8.24968 166.782L7.49017 168.805C7.02961 170.042 5.97921 170.981 4.69449 171.318L2.77954 171.816L9.14656 151.393L14.6167 153.078V153.062Z" fill="#2C163A"/>
<path d="M64.4459 104.34H42.331C39.5677 104.34 36.9659 103 35.3742 100.744L26.2761 87.8668C25.0722 86.1649 24.6197 84.0936 25.0076 82.0465C25.3954 79.9993 26.567 78.2332 28.3123 77.0691L36.2953 72.5252C36.4246 72.453 36.5862 72.4931 36.6589 72.6216C36.7316 72.75 36.6912 72.9106 36.5619 72.9828L36.465 73.039L28.5951 77.5187C26.9871 78.5864 25.8883 80.2322 25.5328 82.1428C25.1772 84.0535 25.5974 85.9802 26.7205 87.5617L35.8186 100.439C37.3053 102.55 39.7454 103.81 42.3391 103.81H64.1873V96.1357L44.2783 95.7905C44.1894 95.7905 44.1086 95.7423 44.0601 95.6701L37.0225 85.2577C36.9417 85.1373 36.974 84.9767 37.0952 84.8884C37.2164 84.8081 37.378 84.8402 37.4669 84.9607L44.4237 95.2606L64.454 95.6058C64.5994 95.6058 64.7125 95.7263 64.7125 95.8708V104.067C64.7125 104.212 64.5913 104.332 64.4459 104.332V104.34Z" fill="#2C163A"/>
<path d="M67.5485 85.8759H52.4471C52.3016 85.8759 52.1804 85.7554 52.1804 85.6109C52.1804 85.4664 52.3016 85.346 52.4471 85.346H67.5485C69.7463 85.346 71.7986 84.3746 73.1884 82.6887L84.8639 68.4871L79.5554 64.2885L67.9202 76.1218C67.8637 76.178 67.7829 76.2101 67.7021 76.2021L47.0577 73.8178C46.9123 73.8017 46.8073 73.6732 46.8234 73.5287C46.8396 73.3842 46.9689 73.2799 47.1143 73.2959L67.6293 75.6722L79.3372 63.7586C79.4342 63.6623 79.5877 63.6543 79.6927 63.7345L85.3972 68.2463C85.4538 68.2864 85.4861 68.3507 85.4942 68.4229C85.4942 68.4952 85.478 68.5594 85.4376 68.6156L73.5924 83.0259C72.1057 84.8402 69.8998 85.8759 67.5405 85.8759H67.5485Z" fill="#2C163A"/>
<path d="M52.2451 114.68H28.4253C28.2799 114.68 28.1587 114.56 28.1587 114.416V90.4117C28.1587 90.2672 28.2799 90.1468 28.4253 90.1468C28.5708 90.1468 28.692 90.2672 28.692 90.4117V114.151H51.9865V103.939C51.9865 103.794 52.1077 103.674 52.2532 103.674C52.3986 103.674 52.5198 103.794 52.5198 103.939V114.416C52.5198 114.56 52.3986 114.68 52.2532 114.68H52.2451Z" fill="#2C163A"/>
<path d="M52.2452 95.935C52.0997 95.935 51.9785 95.8146 51.9785 95.6701V82.9135C51.9785 82.769 52.0997 82.6486 52.2452 82.6486C52.3906 82.6486 52.5118 82.769 52.5118 82.9135V95.6701C52.5118 95.8146 52.3906 95.935 52.2452 95.935Z" fill="#2C163A"/>
<path d="M45.3206 163.828H16.6205C16.4751 163.828 16.3539 163.708 16.3539 163.563V152.806C16.3539 152.661 16.467 152.549 16.6124 152.541L43.8015 151.489L31.4069 132.928C29.3869 129.797 28.2961 126.193 28.2557 122.484L28.1668 114.424C28.1668 114.279 28.2799 114.159 28.4254 114.159C28.5708 114.159 28.692 114.271 28.692 114.416L28.7809 122.476C28.8213 126.088 29.8798 129.605 31.8432 132.639L44.4964 151.585C44.553 151.666 44.553 151.77 44.5126 151.85C44.4722 151.939 44.3833 151.987 44.2863 151.995L16.8791 153.054V163.298H45.3125C49.102 163.298 52.5926 161.412 54.653 158.257C56.7133 155.102 57.0204 151.16 55.4771 147.724L45.3448 125.181C45.2883 125.045 45.3448 124.892 45.4822 124.836C45.6195 124.78 45.7731 124.836 45.8296 124.972L55.9619 147.515C57.5779 151.112 57.2547 155.238 55.0974 158.546C52.94 161.853 49.2798 163.828 45.3125 163.828H45.3206Z" fill="#2C163A"/>
<path d="M78.3758 161.171H68.7283C68.5909 161.171 68.4778 161.074 68.4617 160.938L65.165 132.872L47.6881 130.086C47.5426 130.062 47.4457 129.926 47.4699 129.781C47.4941 129.637 47.6315 129.54 47.7769 129.564L65.4478 132.382C65.569 132.398 65.6579 132.495 65.666 132.615L68.9545 160.649H78.093L77.1719 128.834C77.0749 125.069 74.5782 121.769 70.9665 120.629L52.1563 114.68C52.0189 114.632 51.9381 114.488 51.9866 114.351C52.0351 114.215 52.1805 114.135 52.3179 114.183L71.1281 120.131C74.958 121.344 77.6001 124.836 77.7052 128.826L78.6263 160.914C78.6263 160.986 78.602 161.05 78.5536 161.107C78.5051 161.155 78.4324 161.187 78.3596 161.187L78.3758 161.171Z" fill="#2C163A"/>
<path d="M42.743 76.4269C40.1251 76.4269 37.5961 75.1103 36.1175 72.9748C36.0367 72.8704 36.0447 72.7259 36.1417 72.6296C36.2467 72.5252 36.4164 72.5252 36.5134 72.6296C36.5215 72.6376 36.5295 72.6537 36.5457 72.6617C36.5457 72.6617 36.5457 72.6697 36.5538 72.6778C37.9193 74.6446 40.3433 75.9131 42.7511 75.9131C42.7754 75.9131 42.7996 75.9131 42.8319 75.9131C43.8904 75.897 44.8277 75.6481 45.5468 75.1825C46.3144 74.6848 46.7346 74.1389 46.8396 73.5207C46.8638 73.3762 47.0012 73.2799 47.1466 73.304C47.2921 73.328 47.389 73.4645 47.3648 73.609C47.2355 74.3877 46.7346 75.046 45.8377 75.6321C45.0378 76.1459 44.0035 76.4349 42.84 76.4429C42.8077 76.4429 42.7834 76.4429 42.7511 76.4429L42.743 76.4269Z" fill="#2C163A"/>
<path d="M44.6257 69.2899C44.5611 69.2899 44.5045 69.2899 44.4399 69.2899H44.2864C43.2279 69.2177 42.2179 68.8886 41.2483 68.5674C41.1109 68.5193 41.0301 68.3748 41.0786 68.2383C41.1271 68.1018 41.2725 68.0215 41.4099 68.0697C42.3472 68.3748 43.3168 68.6959 44.3106 68.7601H44.456C45.5711 68.8083 46.5649 68.455 47.179 67.8128C47.8415 67.1063 48.0678 66.0627 48.2132 65.0431C48.3425 64.136 48.4475 63.0763 48.5283 61.9684C48.5364 61.8239 48.6657 61.7195 48.8111 61.7275C48.9566 61.7356 49.0697 61.864 49.0535 62.0085C48.9727 63.1244 48.8596 64.2002 48.7303 65.1234C48.5687 66.2313 48.3183 67.3713 47.5507 68.1821C46.8719 68.9046 45.8054 69.306 44.6015 69.306L44.6257 69.2899Z" fill="#2C163A"/>
<path d="M48.8516 61.5028C48.8516 61.5028 48.8435 61.5028 48.8354 61.5028C48.69 61.4947 48.5769 61.3663 48.5849 61.2218C48.6334 60.4029 48.6577 59.6242 48.6577 58.9177C48.6577 58.1149 48.6334 57.4085 48.5769 56.8224C48.5607 56.6779 48.6738 56.5495 48.8193 56.5334C48.9647 56.5254 49.094 56.6297 49.1101 56.7743C49.1667 57.3764 49.1909 58.0989 49.1909 58.9177C49.1909 59.6322 49.1667 60.419 49.1182 61.2539C49.1182 61.3904 48.997 61.5028 48.8516 61.5028Z" fill="#2C163A"/>
<path d="M47.0982 73.8097C47.0982 73.8097 47.0659 73.8097 47.0578 73.8097C45.9912 73.6331 45.0135 72.9748 44.4399 72.0516C43.8743 71.1364 43.7288 69.9723 44.052 68.9367C44.0924 68.8002 44.2459 68.72 44.3833 68.7601C44.5207 68.8002 44.6015 68.9528 44.5611 69.0892C44.2863 69.9804 44.4075 70.9758 44.9004 71.7706C45.3933 72.5654 46.2336 73.1273 47.1547 73.2799C47.3002 73.304 47.3971 73.4404 47.3729 73.5849C47.3487 73.7134 47.2355 73.8017 47.1143 73.8017L47.0982 73.8097Z" fill="#2C163A"/>
<path d="M36.4811 72.9186C36.4811 72.9186 36.4003 72.9106 36.368 72.8945C36.2387 72.8303 36.1822 72.6778 36.2468 72.5413C37.5154 69.9242 37.7739 66.8253 36.9498 64.0396C36.9094 63.9031 36.9902 63.7506 37.1275 63.7105C37.2649 63.6703 37.4184 63.7506 37.4588 63.8871C38.3234 66.8013 38.0567 70.0366 36.7316 72.7661C36.6831 72.8624 36.5943 72.9186 36.4892 72.9186H36.4811Z" fill="#2C163A"/>
<path d="M38.3637 63.9433C38.0567 63.9433 37.6688 63.9272 37.2972 63.855C36.7396 63.7426 36.3356 63.5178 36.0609 63.1726C35.6084 62.6106 35.6084 61.7516 36.0609 61.1736C36.0932 61.1335 36.1256 61.0933 36.166 61.0532C36.5457 60.6678 37.1517 60.4992 37.7092 60.6277C37.9274 60.6759 38.1213 60.7642 38.291 60.8926C38.4041 60.9809 38.4283 61.1495 38.3395 61.2619C38.2506 61.3743 38.0809 61.3984 37.9678 61.3101C37.8628 61.2298 37.7335 61.1736 37.588 61.1415C37.2083 61.0532 36.7962 61.1656 36.5376 61.4225C36.5134 61.4466 36.4892 61.4706 36.473 61.4947C36.166 61.8801 36.166 62.4741 36.473 62.8434C36.675 63.0923 36.974 63.2529 37.4022 63.3412C37.7658 63.4134 38.1536 63.4215 38.4526 63.4134C38.598 63.4134 38.7192 63.5338 38.7192 63.6784C38.7192 63.8229 38.6061 63.9433 38.4526 63.9433C38.4203 63.9433 38.3879 63.9433 38.3637 63.9433Z" fill="#2C163A"/>
<path d="M37.9516 61.1254C37.9516 61.1254 37.8951 61.1254 37.8708 61.1094C37.7335 61.0612 37.6527 60.9167 37.7012 60.7802C38.1779 59.3432 38.4122 57.842 38.4122 56.3167C38.4122 56.0517 38.4122 55.7868 38.388 55.5299C38.3799 55.3854 38.493 55.257 38.6384 55.2489C38.7839 55.2409 38.9132 55.3533 38.9212 55.4978C38.9374 55.7707 38.9455 56.0437 38.9455 56.3167C38.9455 57.8982 38.7031 59.4556 38.2102 60.9488C38.1698 61.0612 38.0728 61.1335 37.9597 61.1335L37.9516 61.1254Z" fill="#2C163A"/>
<path d="M45.0862 57.9062C42.8642 57.9062 40.618 57.4406 38.5738 56.5575C38.4445 56.5013 38.3718 56.3488 38.4203 56.2203C38.4687 56.0919 38.6061 56.0196 38.7435 56.0597C38.7435 56.0597 38.7596 56.0597 38.7677 56.0678C40.8685 56.9749 43.1632 57.4245 45.4256 57.3763C46.5083 57.3523 47.3325 57.2158 48.0273 56.9348C48.2697 56.8385 48.496 56.718 48.7061 56.5816C49.2393 56.2364 49.6433 55.7868 49.8777 55.281C49.9423 55.1526 50.0958 55.0884 50.2251 55.1526C50.3544 55.2088 50.419 55.3693 50.3544 55.4978C50.0797 56.0999 49.611 56.6217 48.9889 57.0231C48.7465 57.1756 48.496 57.3121 48.2213 57.4245C47.2274 57.8259 46.1528 57.8901 45.4337 57.9062C45.3206 57.9062 45.1994 57.9062 45.0862 57.9062Z" fill="#2C163A"/>
<path d="M35.9963 61.3342C35.9317 61.3342 35.8751 61.3101 35.8266 61.2699C34.1622 59.857 33.1441 58.0186 33.031 56.2203C32.8936 54.0768 34.1218 52.0377 35.9478 51.3794C36.3357 51.2349 36.7397 51.1546 37.1275 51.0824C37.7012 50.97 38.2506 50.8576 38.7112 50.5766C39.0263 50.3839 39.2849 50.111 39.5596 49.83C39.8585 49.5249 40.1656 49.2118 40.5453 48.979C41.6038 48.3368 42.9209 48.5295 44.0601 48.7944C45.466 49.1235 47.2517 49.6454 48.6092 50.8415C50.0474 52.0859 50.7019 53.9002 50.2898 55.4657C50.2494 55.6102 50.104 55.6905 49.9666 55.6503C49.8212 55.6102 49.7404 55.4657 49.7808 55.3292C50.2009 53.7718 49.3202 52.1501 48.2698 51.2349C46.9932 50.119 45.2883 49.6213 43.947 49.3082C42.9128 49.0673 41.7331 48.8907 40.8281 49.4286C40.5049 49.6213 40.2302 49.9023 39.9474 50.1913C39.6565 50.4883 39.3657 50.7934 38.994 51.0181C38.4526 51.3553 37.8305 51.4757 37.2326 51.5962C36.8447 51.6764 36.473 51.7487 36.1256 51.8771C34.5419 52.4552 33.435 54.3096 33.5562 56.1882C33.6612 57.842 34.6146 59.5519 36.166 60.8766C36.2791 60.9729 36.2872 61.1335 36.1983 61.2459C36.1498 61.3101 36.069 61.3342 35.9963 61.3342Z" fill="#2C163A"/>
<path d="M46.8881 64.2724C46.7831 64.2724 46.6861 64.2082 46.6457 64.1119C46.5891 63.9754 46.6538 63.8228 46.7911 63.7667C47.0174 63.6703 47.2759 63.566 47.4618 63.4054C47.6315 63.2609 47.7203 63.0602 47.6961 62.8916C47.6638 62.715 47.5103 62.5544 47.3487 62.3858C47.284 62.3216 47.2194 62.2574 47.1628 62.1851C46.6861 61.6392 46.5164 60.8605 46.7103 60.1621C46.9043 59.4636 47.4537 58.8856 48.1405 58.6608C48.2779 58.6127 48.4314 58.6929 48.4718 58.8294C48.5203 58.9659 48.4395 59.1184 48.3021 59.1586C47.785 59.3272 47.3567 59.7767 47.2113 60.3066C47.0659 60.8284 47.2032 61.4385 47.5507 61.848C47.5991 61.9042 47.6557 61.9684 47.7123 62.0246C47.9143 62.2333 48.1486 62.4661 48.1971 62.8113C48.2536 63.1565 48.1001 63.5338 47.7931 63.8068C47.5426 64.0316 47.2194 64.16 46.9689 64.2644C46.9366 64.2804 46.9043 64.2804 46.8719 64.2804L46.8881 64.2724Z" fill="#2C163A"/>
<path d="M42.0078 60.5073C41.9351 60.5073 41.8624 60.4752 41.8139 60.419C41.717 60.3146 41.725 60.146 41.8301 60.0497C42.3714 59.56 43.0501 59.271 43.7612 59.2549C44.4722 59.2388 45.1671 59.4717 45.7327 59.9293C45.8458 60.0176 45.862 60.1862 45.7731 60.2985C45.6842 60.4109 45.5145 60.427 45.4014 60.3387C44.9409 59.9694 44.351 59.7607 43.7854 59.7767C43.2037 59.7928 42.6462 60.0336 42.1937 60.435C42.1452 60.4832 42.0806 60.5073 42.0159 60.5073H42.0078Z" fill="#2C163A"/>
<path d="M45.6438 67.0582C45.0135 67.0582 44.3752 66.8334 43.8985 66.4079C43.7934 66.3116 43.7773 66.143 43.8823 66.0386C43.9793 65.9262 44.149 65.9182 44.254 66.0225C44.8519 66.5604 45.773 66.6889 46.5002 66.3437C46.6295 66.2794 46.7911 66.3437 46.8558 66.4641C46.9204 66.5925 46.8558 66.7531 46.7346 66.8173C46.3952 66.9779 46.0235 67.0582 45.6438 67.0582Z" fill="#2C163A"/>
<path d="M32.5947 126.923C32.4735 126.923 32.3604 126.835 32.3361 126.714C32.3119 126.57 32.4008 126.433 32.5462 126.401C34.2753 126.064 35.8024 124.932 36.6185 123.383C37.4346 121.833 37.5073 119.947 36.8124 118.333C36.7559 118.197 36.8124 118.044 36.9498 117.988C37.0791 117.932 37.2407 117.988 37.2972 118.124C38.0567 119.875 37.984 121.938 37.0871 123.624C36.1903 125.318 34.5339 126.546 32.6432 126.915C32.627 126.915 32.6108 126.915 32.5947 126.915V126.923Z" fill="#2C163A"/>
<path d="M72.6551 155.102C72.5178 155.102 72.4046 154.997 72.3885 154.861L70.6109 131.724C70.4897 130.207 69.415 128.922 67.9364 128.521L53.3359 124.611C53.1985 124.571 53.1097 124.426 53.1501 124.29C53.1905 124.145 53.3359 124.065 53.4733 124.105L68.0738 128.015C69.7706 128.473 70.9987 129.942 71.1361 131.684L72.9137 154.821C72.9218 154.965 72.8167 155.094 72.6713 155.102C72.6713 155.102 72.6551 155.102 72.647 155.102H72.6551Z" fill="#2C163A"/>
<path d="M90.019 169.327H68.502C68.3566 169.327 68.2354 169.207 68.2354 169.062V163.37C68.2354 162.704 68.7767 162.166 69.4473 162.166C69.5928 162.166 69.7463 162.198 69.8917 162.247C70.1018 162.327 70.2957 162.471 70.4331 162.656L71.5562 164.197C71.839 164.591 72.2996 164.824 72.7925 164.824H74.7478C75.273 164.824 75.7497 164.559 76.0325 164.117L76.9132 162.728C77.1314 162.375 77.5192 162.166 77.9394 162.166H78.1737C78.4808 162.166 78.7878 162.287 79.014 162.503L80.218 163.643C81.131 164.51 82.3268 165.024 83.5873 165.096L85.7608 165.217C87.1748 165.297 88.4676 166.06 89.211 167.256L90.2533 168.926C90.3018 169.006 90.3098 169.11 90.2533 169.191C90.2048 169.271 90.1159 169.327 90.019 169.327ZM68.7606 168.797H89.5342L88.7423 167.529C88.0878 166.477 86.9567 165.811 85.7123 165.739L83.5388 165.618C82.1571 165.538 80.8401 164.976 79.8301 164.021L78.6181 162.881C78.4969 162.76 78.3192 162.696 78.1495 162.696H77.9152C77.6808 162.696 77.4627 162.817 77.3415 163.009L76.4608 164.398C76.081 164.992 75.4346 165.353 74.7236 165.353H72.7682C72.1137 165.353 71.4916 165.04 71.1037 164.51L69.9806 162.969C69.8998 162.865 69.8029 162.784 69.6817 162.736C69.213 162.552 68.7444 162.913 68.7444 163.362V168.789L68.7606 168.797Z" fill="#2C163A"/>
<path d="M90.019 171.944H68.502C68.3566 171.944 68.2354 171.824 68.2354 171.679V169.054C68.2354 168.91 68.3566 168.789 68.502 168.789C68.6474 168.789 68.7686 168.91 68.7686 169.054V171.415H89.7523V169.054C89.7523 168.91 89.8735 168.789 90.019 168.789C90.1644 168.789 90.2856 168.91 90.2856 169.054V171.679C90.2856 171.824 90.1644 171.944 90.019 171.944Z" fill="#2C163A"/>
<path d="M77.9314 162.696C77.8021 162.696 77.6971 162.608 77.6728 162.479L77.4062 160.962C77.3819 160.818 77.4789 160.681 77.6243 160.657C77.7698 160.633 77.9071 160.729 77.9314 160.874L78.198 162.391C78.2223 162.536 78.1253 162.672 77.9799 162.696C77.9637 162.696 77.9475 162.696 77.9314 162.696Z" fill="#2C163A"/>
<path d="M69.8191 162.696C69.6979 162.696 69.5847 162.608 69.5605 162.487L69.2615 160.97C69.2373 160.826 69.3262 160.689 69.4716 160.665C69.6171 160.641 69.7544 160.729 69.7787 160.874L70.0776 162.391C70.1019 162.536 70.013 162.672 69.8675 162.696C69.8514 162.696 69.8352 162.696 69.8191 162.696Z" fill="#2C163A"/>
<path d="M2.78755 172.065C2.71484 172.065 2.6502 172.033 2.59364 171.985C2.529 171.912 2.50476 171.816 2.529 171.728L8.89601 151.304C8.93641 151.168 9.08993 151.088 9.22729 151.128L14.6974 152.814C15.3358 153.014 15.6913 153.689 15.4974 154.323C15.4489 154.475 15.3762 154.612 15.2792 154.724C15.1418 154.901 14.9479 155.037 14.7298 155.11L12.9198 155.72C12.4593 155.88 12.1038 156.242 11.9583 156.707L11.3766 158.562C11.223 159.059 11.3281 159.597 11.6755 159.991L12.7502 161.235C13.0249 161.548 13.1138 161.974 12.9845 162.375L12.9118 162.6C12.8148 162.905 12.6128 163.154 12.3381 163.298L10.8837 164.109C9.78481 164.719 8.93641 165.707 8.49202 166.879L7.7325 168.902C7.23962 170.218 6.12458 171.214 4.75907 171.575L2.84411 172.073C2.84411 172.073 2.79563 172.081 2.77947 172.081L2.78755 172.065ZM9.32425 151.706L3.17539 171.423L4.62979 171.045C5.8337 170.732 6.81138 169.857 7.2477 168.701L8.00722 166.678C8.49202 165.385 9.42929 164.302 10.6413 163.635L12.0957 162.825C12.2492 162.744 12.3623 162.6 12.4189 162.431L12.4835 162.214C12.5562 161.99 12.4997 161.749 12.3462 161.572L11.2715 160.328C10.811 159.79 10.6574 159.067 10.8675 158.401L11.4493 156.547C11.6432 155.928 12.128 155.431 12.7502 155.222L14.5601 154.612C14.6813 154.572 14.7863 154.499 14.8671 154.395C14.9237 154.331 14.9641 154.251 14.9883 154.17C15.1014 153.817 14.8994 153.44 14.5358 153.327L9.32425 151.722V151.706Z" fill="#2C163A"/>
<path d="M2.78761 172.065C2.78761 172.065 2.73913 172.065 2.70681 172.057L0.185861 171.278C0.0485017 171.238 -0.032298 171.085 0.00810182 170.949L6.37512 150.526C6.41552 150.389 6.56904 150.309 6.7064 150.349L9.22735 151.12C9.36471 151.16 9.44551 151.312 9.40511 151.449C9.36471 151.585 9.21119 151.666 9.07383 151.625L6.80336 150.927L0.59794 170.845L2.86841 171.543C3.00577 171.583 3.08657 171.736 3.04617 171.872C3.01385 171.985 2.90881 172.057 2.79569 172.057L2.78761 172.065Z" fill="#2C163A"/>
<path d="M16.6852 162.552H12.734C12.5886 162.552 12.4674 162.431 12.4674 162.287C12.4674 162.142 12.5886 162.022 12.734 162.022H16.6852C16.8306 162.022 16.9518 162.142 16.9518 162.287C16.9518 162.431 16.8306 162.552 16.6852 162.552Z" fill="#2C163A"/>
<path d="M15.1339 154.853C14.9965 154.853 14.8753 154.748 14.8672 154.604C14.8591 154.459 14.9723 154.331 15.1177 154.323L16.661 154.227C16.8064 154.21 16.9357 154.323 16.9438 154.467C16.9599 154.612 16.8468 154.74 16.7014 154.748H16.6367L15.1419 154.845C15.1419 154.845 15.1339 154.845 15.1258 154.845L15.1339 154.853Z" fill="#2C163A"/>
<path d="M80.1776 64.8665C80.113 64.8665 80.0564 64.8424 80.0079 64.8023C79.8948 64.7059 79.8868 64.5454 79.9756 64.433C79.9999 64.4089 80.016 64.3768 80.0403 64.3527C80.5655 63.6864 80.921 62.9157 81.0826 62.1049C81.1068 61.9844 81.1311 61.856 81.1472 61.7356C81.2442 61.1736 81.3411 60.6036 81.7371 60.146C82.3188 59.4797 83.2803 59.3994 84.1368 59.3833L85.0903 59.3593C85.9952 59.3432 86.9002 59.3191 87.8051 59.3031H87.8859C88.1283 59.3031 88.3788 59.3031 88.605 59.3994C88.7586 59.4717 88.8717 59.56 88.9606 59.6804C89.211 60.0416 89.106 60.5394 88.6778 61.0211C88.2899 61.4626 87.8213 61.848 87.3042 62.161C86.5366 62.6267 85.6801 62.9077 84.7994 63.004C84.8802 63.3893 84.8155 63.7988 84.6055 64.1359C84.3307 64.5775 83.8217 64.8585 83.2965 64.8585C83.1511 64.8585 83.0299 64.738 83.0299 64.5935C83.0299 64.449 83.1511 64.3286 83.2965 64.3286C83.6359 64.3286 83.9752 64.144 84.153 63.855C84.3307 63.566 84.355 63.1886 84.2015 62.8836C84.1611 62.8033 84.1611 62.707 84.2015 62.6347C84.2499 62.5544 84.3307 62.5063 84.4196 62.5063C85.3246 62.4661 86.2295 62.1932 87.0214 61.7115C87.4981 61.4225 87.9182 61.0773 88.2738 60.6759C88.4596 60.4591 88.6374 60.154 88.5242 59.9774C88.5 59.9373 88.4596 59.9052 88.395 59.8811C88.2738 59.8329 88.0798 59.8249 87.9021 59.8249H87.8213C86.9163 59.849 86.0114 59.865 85.1064 59.8891L84.153 59.9132C83.3773 59.9293 82.5774 59.9935 82.1411 60.4992C81.8421 60.8445 81.7613 61.3181 81.6724 61.8319C81.6482 61.9603 81.6239 62.0888 81.5997 62.2172C81.4219 63.1084 81.026 63.9593 80.4685 64.6738C80.4523 64.7059 80.42 64.7461 80.3796 64.7862C80.3312 64.8504 80.2504 64.8825 80.1776 64.8825V64.8665Z" fill="#2C163A"/>
<path d="M89.1948 59.849C89.1221 59.849 89.0494 59.8169 88.9928 59.7607C88.8959 59.6483 88.904 59.4877 89.0171 59.3914C89.4615 59.006 89.8574 58.5805 90.2129 58.1069C90.6492 57.5289 91.0128 56.8947 91.2795 56.2283C91.3764 55.9955 91.4653 55.7467 91.4653 55.5058C91.4653 55.2891 91.3683 55.0884 91.2229 54.992C90.8916 54.7913 90.3988 55.1285 90.0432 55.4496L85.276 59.7607C85.171 59.857 85.0013 59.849 84.9044 59.7446C84.8074 59.6402 84.8155 59.4717 84.9205 59.3753L89.6877 55.0643C90.3987 54.422 91.0128 54.2534 91.4976 54.5505C91.7966 54.7351 91.9905 55.0964 91.9986 55.5058C91.9986 55.843 91.8935 56.1481 91.7804 56.4371C91.4895 57.1435 91.1098 57.8179 90.6411 58.428C90.2695 58.9258 89.8412 59.3834 89.3726 59.7928C89.3241 59.8329 89.2595 59.857 89.1948 59.857V59.849Z" fill="#2C163A"/>
<path d="M88.1202 63.7586C87.8858 63.7586 87.6596 63.7024 87.4657 63.5981C87.1748 63.4375 86.9566 63.1244 86.9001 62.7872C86.8435 62.4822 86.9162 62.2012 87.1021 61.9925C87.199 61.8801 87.3687 61.8721 87.4738 61.9684C87.5869 62.0647 87.595 62.2333 87.498 62.3377C87.393 62.4581 87.401 62.6187 87.4172 62.6989C87.4495 62.8836 87.5707 63.0602 87.7242 63.1405C87.9262 63.2529 88.1444 63.2448 88.2898 63.2208C88.4676 63.1967 88.6454 63.1325 88.807 63.0281C89.1786 62.7953 89.4695 62.418 89.7281 62.0808C90.1644 61.5188 90.5361 61.005 90.73 60.427C90.7542 60.3548 90.7785 60.2825 90.7946 60.2183C90.932 59.6483 90.835 58.8535 90.2775 58.4762C90.2775 58.4762 90.2775 58.4762 90.2694 58.4762C90.2533 58.4682 90.229 58.4521 90.2209 58.4361C90.1159 58.3317 90.124 58.1631 90.2209 58.0668C90.3179 57.9704 90.4633 57.9704 90.5684 58.0427C90.5684 58.0427 90.5684 58.0427 90.5765 58.0427C91.336 58.5725 91.4895 59.576 91.3037 60.3387C91.2794 60.427 91.2552 60.5153 91.2309 60.5956C91.0128 61.2459 90.6088 61.7998 90.1482 62.3939C89.8654 62.7632 89.5422 63.1886 89.0898 63.4696C88.8554 63.6141 88.613 63.7024 88.3706 63.7346C88.2898 63.7506 88.209 63.7506 88.1282 63.7506L88.1202 63.7586Z" fill="#2C163A"/>
<path d="M89.5099 65.003C89.413 65.003 89.3079 64.995 89.211 64.9789C89.1544 64.9709 89.1059 64.9628 89.0494 64.9468C88.3707 64.7541 87.9182 64.0557 88.0636 63.4215C88.0636 63.4215 88.0636 63.3893 88.0717 63.3733C88.1202 63.2368 88.2656 63.1565 88.403 63.2047C88.5403 63.2448 88.6131 63.3893 88.5727 63.5258C88.5727 63.5258 88.5727 63.5338 88.5727 63.5419C88.4919 63.8951 88.7827 64.3206 89.1867 64.441C89.2271 64.449 89.2595 64.4571 89.2918 64.4651C89.6635 64.5293 90.1079 64.4009 90.4795 64.1119C90.9886 63.7265 91.336 63.1244 91.4007 62.4902C91.4734 61.864 91.2633 61.1977 90.8512 60.716C90.7543 60.6036 90.7704 60.4431 90.8835 60.3467C90.9967 60.2504 91.1663 60.2664 91.2552 60.3788C91.7562 60.9729 92.0066 61.7837 91.9258 62.5544C91.845 63.3251 91.4249 64.0637 90.8027 64.5374C90.3987 64.8504 89.9382 65.011 89.4938 65.011L89.5099 65.003Z" fill="#2C163A"/>
<path d="M84.8882 68.4309C84.8398 68.4309 84.7913 68.4149 84.7509 68.3908C84.6216 68.3186 84.5893 68.15 84.662 68.0295C84.9044 67.6362 85.365 67.2749 86.0033 66.9859C86.278 66.8655 86.5608 66.7611 86.8355 66.6648C87.2234 66.5283 87.587 66.3999 87.9263 66.2072C88.5646 65.8539 88.9525 65.3321 88.9767 64.8183C88.9767 64.6738 89.106 64.5614 89.2514 64.5614C89.3969 64.5614 89.51 64.6899 89.51 64.8344C89.4857 65.5409 88.9929 66.2232 88.193 66.6648C87.8132 66.8735 87.4092 67.018 87.0214 67.1545C86.7547 67.2508 86.48 67.3472 86.2295 67.4596C85.5104 67.7807 85.2276 68.1179 85.1226 68.2945C85.0741 68.3747 84.9852 68.4229 84.8963 68.4229L84.8882 68.4309Z" fill="#2C163A"/>
<path d="M78.2222 109.149H71.0633C69.9725 109.149 69.0837 108.266 69.0837 107.182V103.754C69.0837 103.61 69.2049 103.489 69.3504 103.489C69.4958 103.489 69.617 103.61 69.617 103.754V107.182C69.617 107.977 70.2715 108.627 71.0714 108.627H78.2303C79.0302 108.627 79.6847 107.977 79.6847 107.182V92.0414C79.6847 91.2466 79.0302 90.5963 78.2303 90.5963H71.0714C70.2715 90.5963 69.617 91.2466 69.617 92.0414V97.661C69.617 97.8055 69.4958 97.9259 69.3504 97.9259C69.2049 97.9259 69.0837 97.8055 69.0837 97.661V92.0414C69.0837 90.9576 69.9725 90.0745 71.0633 90.0745H78.2222C79.313 90.0745 80.2018 90.9576 80.2018 92.0414V107.182C80.2018 108.266 79.313 109.149 78.2222 109.149Z" fill="#2C163A"/>
<path d="M64.8661 97.4362C64.7126 97.4362 64.5671 97.4282 64.4136 97.4041L64.3167 97.3881C64.1712 97.364 64.0742 97.2275 64.1066 97.083C64.1308 96.9385 64.2682 96.8421 64.4136 96.8743L64.5025 96.8903C65.3186 97.0027 66.1831 96.7458 66.8134 96.1999C67.0154 96.0313 67.185 95.8306 67.3709 95.6219C67.5648 95.3971 67.7749 95.1643 68.0092 94.9636C68.4213 94.6104 68.9061 94.4097 69.3666 94.4257C69.399 94.4257 69.4313 94.4257 69.4636 94.4257C69.609 94.4418 69.7141 94.5702 69.6979 94.7147C69.6818 94.8592 69.5525 94.9636 69.407 94.9475C69.3909 94.9475 69.3747 94.9475 69.3586 94.9475C69.0354 94.9395 68.6637 95.092 68.3566 95.357C68.1466 95.5336 67.9607 95.7423 67.7668 95.9591C67.581 96.1758 67.387 96.3926 67.1608 96.5853C66.5306 97.1231 65.7064 97.4282 64.8742 97.4282L64.8661 97.4362Z" fill="#2C163A"/>
<path d="M68.6879 100.366C68.6232 100.366 68.5586 100.366 68.4859 100.366C68.3404 100.366 68.2192 100.246 68.2273 100.102C68.2273 99.957 68.3485 99.8366 68.4939 99.8446C70.4008 99.8767 72.3239 99.4834 74.0691 98.7046C74.1984 98.6485 74.3034 98.5923 74.3923 98.5441C74.7317 98.3354 74.9014 98.1186 74.9014 97.8938C74.9014 97.6289 74.6186 97.4041 74.3681 97.3319C74.0368 97.2435 73.657 97.2997 73.3177 97.3479L69.3908 97.9259L69.3181 97.669L69.3666 97.9259C69.3666 97.9259 69.3343 97.9259 69.3181 97.9259C69.1727 97.942 69.0434 97.8376 69.0272 97.6931C69.0111 97.5486 69.1161 97.4202 69.2615 97.4041H69.2777C69.2777 97.4041 69.31 97.3961 69.3262 97.3961L73.2369 96.8261C73.6086 96.7699 74.0691 96.7057 74.5054 96.8261C74.9418 96.9465 75.4185 97.3319 75.4266 97.8778C75.4346 98.3113 75.1842 98.6806 74.6671 98.9937C74.5297 99.0739 74.3843 99.1462 74.2873 99.1863C72.5339 99.9651 70.6028 100.374 68.6879 100.374V100.366Z" fill="#2C163A"/>
<path d="M69.5524 102.253C69.0838 102.253 68.6151 102.221 68.1465 102.165C68.001 102.149 67.896 102.012 67.9122 101.868C67.9283 101.723 68.0576 101.619 68.2111 101.635C70.1988 101.876 72.2188 101.571 74.0529 100.752L74.1661 100.704C74.5701 100.519 75.0145 100.27 75.1922 99.8687C75.273 99.6841 75.2488 99.4272 75.1357 99.2425C75.0791 99.1542 74.9902 99.0579 74.8448 99.0499C74.6993 99.0499 74.5862 98.9214 74.5943 98.7769C74.5943 98.6324 74.7236 98.52 74.869 98.528C75.1599 98.5441 75.4185 98.7047 75.5801 98.9696C75.7901 99.2987 75.8225 99.7322 75.677 100.077C75.4346 100.639 74.8852 100.953 74.3842 101.185L74.2711 101.233C72.7844 101.9 71.1765 102.237 69.5524 102.237V102.253Z" fill="#2C163A"/>
<path d="M67.8395 104.011C66.773 104.011 65.7064 103.939 64.6722 103.867C64.5267 103.859 64.4136 103.73 64.4298 103.586C64.4378 103.441 64.5671 103.329 64.7126 103.345C66.2154 103.449 67.7749 103.554 69.3181 103.433C69.5767 103.417 69.811 103.393 70.0453 103.361C71.0473 103.232 72.0249 102.992 72.9541 102.646C73.3016 102.518 73.649 102.373 73.8833 102.117C74.0611 101.916 74.1742 101.563 74.0288 101.33C73.948 101.209 73.9884 101.041 74.1096 100.969C74.2308 100.888 74.4004 100.928 74.4732 101.049C74.764 101.506 74.5944 102.109 74.2793 102.47C73.9722 102.807 73.5521 102.992 73.14 103.144C72.1704 103.497 71.1523 103.746 70.1181 103.883C69.8757 103.915 69.6333 103.939 69.3666 103.955C68.8576 103.995 68.3486 104.011 67.8476 104.011H67.8395Z" fill="#2C163A"/>
<path d="M71.3139 117.546C71.1684 117.546 71.0472 117.426 71.0472 117.282V112.336C71.0472 112.192 71.1684 112.071 71.3139 112.071C71.4593 112.071 71.5805 112.192 71.5805 112.336V117.282C71.5805 117.426 71.4593 117.546 71.3139 117.546Z" fill="#2C163A"/>
<path d="M144.979 168.476H93.3156C93.1701 168.476 93.049 168.356 93.049 168.211C93.049 168.067 93.1701 167.946 93.3156 167.946H144.979C145.124 167.946 145.246 168.067 145.246 168.211C145.246 168.356 145.124 168.476 144.979 168.476Z" fill="#2C163A"/>
<path d="M154.731 137.006C154.586 137.006 154.465 136.886 154.465 136.741V89.368C154.465 89.2235 154.586 89.1031 154.731 89.1031C154.877 89.1031 154.998 89.2235 154.998 89.368V136.741C154.998 136.886 154.877 137.006 154.731 137.006Z" fill="#2C163A"/>
<path d="M71.3139 68.5674C71.1684 68.5674 71.0472 68.447 71.0472 68.3025V12.8529C71.0472 7.36975 75.5397 2.89813 81.0664 2.89813H144.979C150.498 2.89813 154.998 7.36172 154.998 12.8529V63.6703C154.998 63.8148 154.877 63.9353 154.732 63.9353C154.586 63.9353 154.465 63.8148 154.465 63.6703V12.8529C154.465 7.65876 150.207 3.42798 144.979 3.42798H81.0664C75.8387 3.42798 71.5805 7.65876 71.5805 12.8529V68.3105C71.5805 68.455 71.4593 68.5755 71.3139 68.5755V68.5674Z" fill="#2C163A"/>
<path d="M76.0164 118.767C75.871 118.767 75.7498 118.646 75.7498 118.502V112.529C75.7498 112.384 75.871 112.264 76.0164 112.264C76.1618 112.264 76.283 112.384 76.283 112.529V118.502C76.283 118.646 76.1618 118.767 76.0164 118.767Z" fill="#2C163A"/>
<path d="M144.979 163.804H90.3987C90.2533 163.804 90.1321 163.684 90.1321 163.539C90.1321 163.395 90.2533 163.274 90.3987 163.274H144.979C145.124 163.274 145.246 163.395 145.246 163.539C145.246 163.684 145.124 163.804 144.979 163.804Z" fill="#2C163A"/>
<path d="M150.037 155.174C149.892 155.174 149.77 155.053 149.77 154.909V89.368C149.77 89.2235 149.892 89.1031 150.037 89.1031C150.182 89.1031 150.304 89.2235 150.304 89.368V154.909C150.304 155.053 150.182 155.174 150.037 155.174Z" fill="#2C163A"/>
<path d="M150.037 70.0526C149.892 70.0526 149.77 69.9322 149.77 69.7877V12.8529C149.77 10.2277 147.621 8.10028 144.987 8.10028H128.666C126.347 8.10028 124.27 9.64167 123.616 11.8494C122.896 14.2819 120.61 15.9758 118.057 15.9758H108.094C105.541 15.9758 103.254 14.2738 102.535 11.8494C101.88 9.64167 99.8039 8.10028 97.4849 8.10028H81.0583C78.4162 8.10028 76.275 10.2357 76.275 12.8529V63.293C76.275 63.4375 76.1538 63.5579 76.0083 63.5579C75.8629 63.5579 75.7417 63.4375 75.7417 63.293V12.8529C75.7417 9.9387 78.1253 7.57043 81.0583 7.57043H97.4849C100.038 7.57043 102.317 9.27238 103.044 11.6968C103.698 13.9046 105.775 15.4459 108.094 15.4459H118.057C120.375 15.4459 122.452 13.9046 123.107 11.6968C123.826 9.26435 126.112 7.57043 128.666 7.57043H144.987C147.92 7.57043 150.304 9.9387 150.304 12.8529V69.7877C150.304 69.9322 150.182 70.0526 150.037 70.0526Z" fill="#2C163A"/>
<path d="M113.023 12.2909C111.803 12.2909 110.817 11.3035 110.817 10.0993C110.817 8.89507 111.811 7.90762 113.023 7.90762C114.235 7.90762 115.228 8.89507 115.228 10.0993C115.228 11.3035 114.235 12.2909 113.023 12.2909ZM113.023 8.42945C112.093 8.42945 111.342 9.17605 111.342 10.0993C111.342 11.0225 112.093 11.7691 113.023 11.7691C113.952 11.7691 114.703 11.0225 114.703 10.0993C114.703 9.17605 113.952 8.42945 113.023 8.42945Z" fill="#2C163A"/>
<path d="M193.362 170.828C194.784 172.683 197.628 176.785 196.893 179.057C195.164 184.42 185.104 175.404 184.482 173.462C184.24 172.707 184.304 168.645 184.829 167.545C185.961 173.727 194.275 178.696 195.568 176.93C196.392 175.806 195.115 173.149 193.37 170.828H193.362Z" fill="#2C163A"/>
<path d="M176.741 43.263C177.073 42.4442 176.66 41.4567 175.966 40.9269C175.271 40.397 174.374 40.2525 173.517 40.2606C172.653 40.2606 171.796 40.4051 170.94 40.3729C169.437 40.3168 167.983 39.6986 166.835 38.7111C166.157 38.1251 165.583 37.4186 165.163 36.6158C164.936 36.1903 164.751 35.7327 164.621 35.2591C166.617 33.3805 169.114 31.51 171.772 31.0363C172.952 30.8276 174.172 30.7714 175.335 31.0604C176.499 31.3494 177.606 32.0077 178.293 33.0193C179.084 34.1753 179.27 35.6846 180.062 36.8326C181.444 38.8316 184.288 39.2892 185.686 41.2801C186.987 43.1266 186.615 45.6875 186.001 47.8792C185.104 51.0422 183.795 54.0768 182.123 56.8866L182.009 57.1596L178.826 55.8108L178.729 55.6423C178.527 55.5459 178.325 55.4175 178.147 55.273C176.087 53.6353 175.392 49.26 176.968 46.1933C177.396 46.1933 177.832 45.9845 178.099 45.6313C178.487 45.1095 178.478 44.3147 178.074 43.8089C177.759 43.4156 177.234 43.2229 176.749 43.2951V43.2711L176.741 43.263Z" fill="#2C163A"/>
<path d="M170.802 43.8732C171.077 43.8732 171.303 44.098 171.303 44.3709C171.303 44.6439 171.077 44.8686 170.802 44.8686C170.528 44.8686 170.302 44.6439 170.302 44.3709C170.302 44.098 170.528 43.8732 170.802 43.8732Z" fill="#2C163A"/>
<path d="M167.789 55.7386L167.821 55.8349L165.93 56.5093L165.841 56.2524C164.613 54.8956 164.258 52.9529 164.064 51.1064C163.571 46.2735 163.926 41.3524 165.106 36.6479L165.163 36.6158C165.583 37.4106 166.156 38.1251 166.835 38.7111L166.722 38.8396C166.27 41.0312 165.817 43.2711 166.108 45.4868C166.399 47.7025 167.57 49.9343 169.558 50.8415C169.736 50.9218 169.922 50.994 170.116 51.0502L170.051 51.267C170.714 53.6031 169.081 55.3452 167.789 55.7386Z" fill="#2C163A"/>
<path d="M184.369 85.8196C186.001 84.4549 187.601 83.1142 189.039 81.8457L185.096 73.7294L184.361 85.8196H184.369ZM177.372 92.7077L177.121 92.7237C176.184 93.0529 175.125 92.7799 174.156 92.9325L166.964 92.4428L165.252 68.5513H165.114L158.99 81.9581C157.915 84.3104 155.612 85.8116 153.083 85.8116H133.037L132.98 84.0374L132.843 79.2447L132.802 77.8077H149.875L157.067 63.4616C158.577 60.4832 161.139 58.2193 164.217 57.1194L165.946 56.5013L167.837 55.8269L168.12 55.7306C168.411 57.0632 169.59 58.0587 170.883 58.3557C172.176 58.6528 173.542 58.3317 174.729 57.7295C175.917 57.1274 176.951 56.2604 177.978 55.4014L178.171 55.2649C178.357 55.4094 178.551 55.5299 178.753 55.6342L178.85 55.8028L182.034 57.1515L185.985 58.8294C188.821 60.0336 191.059 62.3617 192.198 65.3L197.547 79.1242C198.711 82.1267 197.798 85.5627 195.309 87.5457L186.203 94.803L181.46 98.5842C181.193 98.3674 180.886 98.1105 180.555 97.7975C180.014 97.2756 179.424 96.6093 178.866 95.7824C178.123 94.6665 177.662 93.5827 177.388 92.7157L177.372 92.7077Z" fill="#61AE45"/>
<path d="M166.649 43.0061C166.924 43.0061 167.15 43.2309 167.15 43.5039C167.15 43.7768 166.924 44.0016 166.649 44.0016C166.375 44.0016 166.148 43.7768 166.148 43.5039C166.148 43.2309 166.375 43.0061 166.649 43.0061Z" fill="#2C163A"/>
<path d="M147.985 170.668C145.997 172.771 144.438 175.268 145.124 176.472C146.207 178.367 155.03 174.353 156.848 168.34C157.244 169.496 156.848 173.534 156.525 174.256C155.685 176.119 144.68 183.962 143.565 178.439C143.096 176.103 146.353 172.362 147.985 170.668Z" fill="#2C163A"/>
<path d="M185.096 73.9863C184.999 73.9863 184.902 73.9301 184.854 73.8338L182.737 69.4826C182.672 69.3542 182.728 69.1936 182.858 69.1294C182.987 69.0651 183.149 69.1294 183.213 69.2498L185.33 73.601C185.395 73.7294 185.338 73.89 185.209 73.9542C185.169 73.9703 185.136 73.9783 185.096 73.9783V73.9863Z" fill="#2C163A"/>
<path d="M181.436 98.8411C181.379 98.8411 181.323 98.8251 181.274 98.7849C180.935 98.52 180.636 98.2551 180.353 97.9821C179.707 97.364 179.133 96.6735 178.632 95.9189C177.986 94.9475 177.477 93.8958 177.121 92.78C177.04 92.5311 176.968 92.2662 176.887 91.9691C176.863 91.8728 176.887 91.7684 176.968 91.7042C178.834 90.0745 180.991 88.2762 183.084 86.5341L184.199 85.6029C185.686 84.3585 187.261 83.0339 188.716 81.7655L184.862 73.8258C184.797 73.6973 184.854 73.5368 184.983 73.4725C185.112 73.4083 185.274 73.4645 185.338 73.593L189.281 81.7093C189.33 81.8137 189.306 81.9421 189.217 82.0224C187.714 83.331 186.082 84.7038 184.539 85.9963L183.423 86.9275C181.379 88.6295 179.27 90.3796 177.444 91.9771C177.501 92.2019 177.565 92.4026 177.63 92.6033C177.978 93.6711 178.462 94.6826 179.076 95.6058C179.553 96.3203 180.111 96.9866 180.725 97.5807C180.951 97.7975 181.185 98.0062 181.444 98.2149L195.123 87.3048C197.507 85.4022 198.396 82.0625 197.281 79.1885L191.932 65.3642C190.833 62.5143 188.619 60.2102 185.864 59.0462L178.729 56.0276C178.592 55.9714 178.535 55.8189 178.592 55.6824C178.648 55.5459 178.802 55.4897 178.939 55.5459L186.074 58.5645C188.958 59.7928 191.277 62.2012 192.433 65.1796L197.782 79.0039C198.977 82.0946 198.024 85.6832 195.463 87.7223L181.614 98.7608C181.565 98.801 181.509 98.817 181.444 98.817L181.436 98.8411Z" fill="#2C163A"/>
<path d="M153.083 86.0765H133.029C132.883 86.0685 132.77 85.9561 132.762 85.8116L132.528 77.8237C132.528 77.7515 132.552 77.6873 132.6 77.6311C132.649 77.5829 132.722 77.5508 132.794 77.5508H151.112C151.257 77.5508 151.378 77.6712 151.378 77.8157C151.378 77.9602 151.257 78.0806 151.112 78.0806H133.069L133.287 85.5467H153.075V85.5547C155.491 85.5547 157.705 84.1017 158.731 81.8538L164.856 68.455C164.912 68.3266 165.074 68.2623 165.203 68.3266C165.332 68.3828 165.397 68.5433 165.332 68.6718L159.208 82.0706C158.093 84.5031 155.685 86.0765 153.067 86.0765H153.083Z" fill="#2C163A"/>
<path d="M149.867 78.0806C149.867 78.0806 149.786 78.0726 149.746 78.0565C149.617 77.9923 149.56 77.8318 149.625 77.7033L156.816 63.3572C158.367 60.3066 160.961 58.0105 164.112 56.8786L168.096 55.4576C168.233 55.4095 168.387 55.4817 168.435 55.6182C168.484 55.7547 168.411 55.9072 168.273 55.9554L164.29 57.3763C161.26 58.4601 158.771 60.6678 157.285 63.59L150.094 77.9361C150.045 78.0325 149.956 78.0806 149.859 78.0806H149.867Z" fill="#2C163A"/>
<path d="M174.148 93.1974H174.132L166.94 92.7077C166.811 92.6997 166.706 92.5953 166.698 92.4669L164.84 66.6166C164.831 66.4721 164.937 66.3436 165.082 66.3356C165.235 66.3276 165.357 66.4319 165.365 66.5765L167.207 92.1939L174.164 92.6676C174.309 92.6756 174.422 92.804 174.406 92.9485C174.398 93.085 174.277 93.1974 174.14 93.1974H174.148Z" fill="#2C163A"/>
<path d="M159.499 166.413H150.102C150.021 166.413 149.948 166.381 149.9 166.317C149.851 166.252 149.827 166.172 149.843 166.1L161.195 110.538C161.341 109.84 161.559 109.141 161.858 108.475L166.714 92.3705C166.754 92.234 166.9 92.1538 167.045 92.1939C167.183 92.234 167.263 92.3785 167.223 92.5231L162.359 108.643C162.359 108.643 162.359 108.667 162.351 108.675C162.068 109.31 161.858 109.976 161.721 110.642L150.433 165.883H159.305L174.099 114.552C174.139 114.416 174.285 114.327 174.43 114.375C174.568 114.415 174.649 114.56 174.608 114.705L174.552 114.897L159.757 166.228C159.725 166.341 159.62 166.421 159.499 166.421V166.413Z" fill="#2C163A"/>
<path d="M191.447 165.883H182.793C182.664 165.883 182.551 165.787 182.535 165.666L173.905 114.11L171.15 110.731C171.061 110.618 171.077 110.45 171.19 110.361C171.303 110.273 171.473 110.289 171.562 110.401L174.358 113.829C174.358 113.829 174.406 113.91 174.414 113.95L183.019 165.353H191.172L189.459 113.3C189.403 111.558 189.136 109.815 188.659 108.13L185.912 94.8432C185.88 94.6987 185.977 94.5622 186.122 94.5301C186.268 94.498 186.405 94.5943 186.437 94.7388L189.176 108.009C189.661 109.719 189.936 111.493 189.992 113.284L191.713 165.61C191.713 165.683 191.689 165.755 191.641 165.803C191.592 165.851 191.52 165.883 191.447 165.883Z" fill="#2C163A"/>
<path d="M171.885 58.7331C171.53 58.7331 171.174 58.6929 170.811 58.6127C169.332 58.2755 168.144 57.1435 167.853 55.7868C167.821 55.6423 167.91 55.5058 168.055 55.4737C168.193 55.4416 168.338 55.5299 168.37 55.6744C168.621 56.8304 169.655 57.8018 170.932 58.0989C172.338 58.42 173.703 57.9463 174.6 57.4968C175.772 56.9027 176.798 56.0357 177.8 55.2007C177.913 55.1044 178.083 55.1205 178.171 55.2329C178.268 55.3452 178.252 55.5138 178.139 55.6021C177.121 56.4611 176.063 57.3442 174.842 57.9624C174.099 58.3397 173.049 58.7331 171.893 58.7331H171.885Z" fill="#2C163A"/>
<path d="M167.457 56.0678C167.328 56.0678 167.215 55.9714 167.191 55.8349C167.175 55.6904 167.272 55.562 167.417 55.5379C167.506 55.5299 167.603 55.5058 167.7 55.4737C168.952 55.0883 170.382 53.4265 169.784 51.3232C169.744 51.1867 169.825 51.0342 169.97 51.0021C170.116 50.9619 170.261 51.0422 170.293 51.1867C170.98 53.6192 169.324 55.5299 167.853 55.9795C167.724 56.0196 167.603 56.0437 167.482 56.0597C167.474 56.0597 167.457 56.0597 167.449 56.0597L167.457 56.0678Z" fill="#2C163A"/>
<path d="M178.729 55.8992C178.729 55.8992 178.648 55.8912 178.616 55.8751C178.398 55.7627 178.18 55.6343 177.986 55.4737C175.764 53.7075 175.158 49.1396 176.741 46.0648C176.806 45.9364 176.968 45.8882 177.097 45.9525C177.226 46.0167 177.283 46.1772 177.21 46.3057C175.731 49.1797 176.265 53.4346 178.317 55.0643C178.487 55.1927 178.664 55.3131 178.85 55.4015C178.979 55.4657 179.036 55.6262 178.971 55.7547C178.923 55.851 178.834 55.8992 178.737 55.8992H178.729Z" fill="#2C163A"/>
<path d="M171.505 51.5239C171.013 51.5239 170.52 51.4516 170.035 51.2991C169.849 51.2429 169.655 51.1707 169.445 51.0824C167.183 50.0548 166.1 47.534 165.841 45.527C165.542 43.239 166.027 40.8787 166.455 38.7914C166.488 38.6469 166.625 38.5586 166.771 38.5827C166.916 38.6148 167.005 38.7513 166.981 38.8958C166.544 41.0393 166.084 43.255 166.367 45.4547C166.609 47.3252 167.603 49.6614 169.663 50.6007C169.841 50.6809 170.019 50.7452 170.18 50.7933C170.972 51.0342 171.804 51.0583 172.588 50.8576C172.726 50.8174 172.871 50.9057 172.911 51.0422C172.952 51.1867 172.863 51.3232 172.726 51.3633C172.322 51.4677 171.909 51.5159 171.497 51.5159L171.505 51.5239Z" fill="#2C163A"/>
<path d="M176.927 46.4502C176.693 46.4502 176.475 46.402 176.265 46.3057C176.135 46.2414 176.079 46.0889 176.135 45.9524C176.2 45.824 176.353 45.7678 176.491 45.824C176.636 45.8882 176.798 45.9283 176.959 45.9203C177.331 45.9203 177.67 45.7437 177.889 45.4627C178.212 45.0372 178.196 44.3789 177.864 43.9615C177.614 43.6484 177.194 43.4878 176.782 43.544C176.66 43.5601 176.555 43.5922 176.458 43.6404C176.329 43.7046 176.168 43.6564 176.103 43.528C176.038 43.3995 176.087 43.239 176.216 43.1747C176.37 43.0945 176.539 43.0463 176.709 43.0222C177.299 42.9339 177.913 43.1747 178.276 43.6323C178.761 44.2344 178.769 45.1577 178.309 45.7758C178.002 46.1852 177.501 46.4341 176.968 46.4421C176.951 46.4421 176.935 46.4421 176.927 46.4421V46.4502Z" fill="#2C163A"/>
<path d="M176.741 43.528C176.741 43.528 176.677 43.528 176.644 43.5119C176.507 43.4557 176.442 43.3032 176.499 43.1667C176.798 42.4201 176.37 41.5691 175.812 41.1436C175.271 40.7262 174.487 40.5175 173.525 40.5255C173.154 40.5255 172.774 40.5576 172.402 40.5817C171.926 40.6138 171.433 40.6539 170.932 40.6379C169.413 40.5817 167.902 39.9716 166.657 38.9119C165.938 38.2937 165.357 37.5631 164.92 36.7443C164.678 36.2947 164.492 35.813 164.363 35.3313C164.322 35.1868 164.411 35.0504 164.549 35.0102C164.686 34.9701 164.831 35.0584 164.872 35.1949C164.993 35.6364 165.163 36.078 165.389 36.4954C165.785 37.25 166.342 37.9405 166.997 38.5104C168.144 39.4899 169.542 40.0599 170.94 40.108C171.4 40.1241 171.885 40.092 172.346 40.0518C172.725 40.0277 173.113 39.9956 173.509 39.9956C173.525 39.9956 173.542 39.9956 173.55 39.9956C174.624 39.9956 175.489 40.2365 176.119 40.7182C176.959 41.3524 177.323 42.4924 176.976 43.3594C176.935 43.4637 176.838 43.528 176.733 43.528H176.741Z" fill="#2C163A"/>
<path d="M182.131 57.1435C182.082 57.1435 182.042 57.1355 181.993 57.1034C181.864 57.0311 181.824 56.8706 181.904 56.7421C183.569 53.9484 184.87 50.9379 185.759 47.7989C186.583 44.8927 186.494 42.8617 185.484 41.4246C184.821 40.4854 183.819 39.9073 182.761 39.2892C181.694 38.671 180.587 38.0288 179.86 36.9771C179.44 36.367 179.181 35.6766 178.939 35.0022C178.697 34.3359 178.462 33.7097 178.091 33.1638C177.485 32.2727 176.483 31.6144 175.287 31.3173C174.277 31.0685 173.146 31.0604 171.829 31.2933C169.671 31.6786 167.377 33.0353 164.807 35.4518C164.702 35.5481 164.532 35.5481 164.436 35.4438C164.339 35.3394 164.339 35.1708 164.444 35.0745C167.086 32.5858 169.469 31.1889 171.732 30.7795C173.121 30.5306 174.325 30.5386 175.408 30.8116C176.733 31.1407 177.84 31.8713 178.519 32.8748C178.931 33.4769 179.181 34.1593 179.424 34.8256C179.674 35.4999 179.909 36.1342 180.288 36.6881C180.951 37.6434 181.953 38.2295 183.019 38.8476C184.078 39.4658 185.177 40.1 185.904 41.1356C187.358 43.2069 186.801 46.0167 186.251 47.9514C185.346 51.1386 184.038 54.1892 182.349 57.0231C182.3 57.1034 182.211 57.1516 182.123 57.1516L182.131 57.1435Z" fill="#2C163A"/>
<path d="M165.841 56.5093C165.769 56.5093 165.696 56.4772 165.647 56.421C164.355 54.984 163.991 52.9368 163.805 51.1225C163.304 46.2254 163.66 41.3363 164.848 36.5757C164.88 36.4312 165.025 36.3509 165.171 36.383C165.316 36.4151 165.397 36.5597 165.365 36.7042C164.185 41.4006 163.838 46.2415 164.33 51.0743C164.508 52.8004 164.848 54.7512 166.043 56.0758C166.14 56.1802 166.132 56.3487 166.019 56.4451C165.971 56.4933 165.906 56.5093 165.841 56.5093Z" fill="#2C163A"/>
<path d="M194.655 177.548C194.436 177.548 194.186 177.516 193.895 177.452C190.768 176.745 185.46 172.442 184.571 167.585C184.571 167.569 184.571 167.553 184.571 167.537V165.57C184.571 165.426 184.692 165.305 184.837 165.305C184.983 165.305 185.104 165.426 185.104 165.57V167.513C185.993 172.306 191.382 176.336 194.024 176.938C194.695 177.09 195.172 177.026 195.366 176.769C196.004 175.902 195.123 173.574 193.168 170.981C193.079 170.861 193.103 170.7 193.224 170.612C193.346 170.523 193.507 170.547 193.596 170.668C195.285 172.916 196.747 175.782 195.794 177.082C195.624 177.315 195.293 177.548 194.671 177.548H194.655Z" fill="#2C163A"/>
<path d="M193.136 170.796C193.055 170.796 192.974 170.756 192.925 170.692C192.829 170.564 192.732 170.443 192.627 170.323C192.53 170.21 192.546 170.042 192.659 169.953C192.772 169.857 192.942 169.873 193.031 169.986C193.136 170.114 193.241 170.242 193.346 170.379C193.435 170.491 193.41 170.66 193.297 170.748C193.249 170.78 193.192 170.804 193.136 170.804V170.796Z" fill="#2C163A"/>
<path d="M192.594 170.122C192.522 170.122 192.441 170.09 192.392 170.026C191.592 169.078 190.792 168.292 190.073 167.746C190.009 167.698 189.968 167.617 189.968 167.537V165.57C189.968 165.426 190.089 165.305 190.235 165.305C190.38 165.305 190.502 165.426 190.502 165.57V167.409C191.221 167.97 192.012 168.757 192.796 169.688C192.893 169.801 192.877 169.969 192.764 170.058C192.715 170.098 192.651 170.122 192.594 170.122Z" fill="#2C163A"/>
<path d="M194.679 181C191.099 181 184.781 175.26 184.231 173.542C183.973 172.731 184.021 168.629 184.587 167.433C184.652 167.304 184.805 167.248 184.942 167.304C185.072 167.368 185.128 167.521 185.072 167.657C184.579 168.693 184.522 172.699 184.74 173.381C185.185 174.762 191.204 180.47 194.687 180.47C195.681 180.47 196.327 179.98 196.65 178.969C197.353 176.785 194.445 172.659 193.16 170.981L192.635 170.307C192.489 170.13 192.4 170.026 192.4 170.026C192.303 169.913 192.32 169.745 192.433 169.656C192.546 169.56 192.715 169.576 192.804 169.688C192.804 169.688 192.893 169.793 193.047 169.977L193.354 170.363L193.37 170.387L193.58 170.66C195.236 172.819 197.903 176.793 197.151 179.129C196.755 180.35 195.907 180.992 194.687 180.992L194.679 181Z" fill="#2C163A"/>
<path d="M146.28 177.211C145.439 177.211 145.06 176.89 144.898 176.601C144.098 175.204 145.868 172.522 147.791 170.483C147.888 170.379 148.057 170.371 148.162 170.475C148.267 170.572 148.276 170.74 148.171 170.845C145.949 173.197 144.817 175.404 145.351 176.336C145.512 176.617 145.981 176.729 146.66 176.657C149.35 176.352 155.16 172.948 156.582 168.284L156.8 166.357C156.816 166.212 156.945 166.108 157.091 166.124C157.236 166.14 157.341 166.269 157.325 166.413L157.099 168.364C157.099 168.364 157.099 168.396 157.091 168.412C155.661 173.149 149.9 176.825 146.716 177.187C146.555 177.203 146.401 177.211 146.264 177.211H146.28Z" fill="#2C163A"/>
<path d="M148.235 170.788L147.839 170.435C147.904 170.363 147.96 170.299 148.025 170.242C148.146 170.114 148.267 169.994 148.397 169.873C148.502 169.777 148.671 169.777 148.768 169.881C148.873 169.986 148.865 170.154 148.76 170.25C148.639 170.363 148.518 170.491 148.397 170.612C148.34 170.668 148.284 170.732 148.227 170.788H148.235Z" fill="#2C163A"/>
<path d="M148.736 170.17C148.672 170.17 148.607 170.146 148.558 170.106C148.453 170.01 148.437 169.841 148.542 169.737C148.575 169.705 148.607 169.672 148.631 169.648C148.736 169.552 148.906 169.56 149.003 169.672C149.1 169.785 149.092 169.945 148.979 170.042C148.962 170.058 148.946 170.074 148.93 170.09C148.882 170.146 148.809 170.178 148.736 170.178V170.17Z" fill="#2C163A"/>
<path d="M148.841 170.058C148.768 170.058 148.704 170.034 148.655 169.978C148.558 169.873 148.55 169.721 148.655 169.616C148.671 169.6 148.696 169.576 148.72 169.56C148.841 169.472 149.003 169.496 149.092 169.616C149.18 169.729 149.156 169.889 149.043 169.978C148.987 170.026 148.922 170.05 148.849 170.05L148.841 170.058Z" fill="#2C163A"/>
<path d="M148.873 170.042C148.801 170.042 148.736 170.018 148.68 169.961C148.583 169.857 148.583 169.688 148.688 169.592C149.544 168.773 150.441 168.067 151.225 167.585L151.427 165.763C151.443 165.618 151.572 165.514 151.718 165.53C151.863 165.546 151.968 165.674 151.952 165.819L151.734 167.77C151.726 167.85 151.677 167.922 151.604 167.962C150.829 168.428 149.916 169.143 149.043 169.969C148.995 170.018 148.922 170.042 148.857 170.042H148.873Z" fill="#2C163A"/>
<path d="M145.965 180.639C145.819 180.639 145.682 180.639 145.545 180.615C144.333 180.478 143.557 179.748 143.298 178.487C142.813 176.079 145.9 172.442 147.791 170.483C147.807 170.467 147.823 170.443 147.847 170.427L147.928 170.347C147.928 170.347 147.985 170.283 148.017 170.258C148.146 170.122 148.259 170.01 148.356 169.921L148.55 169.729C148.55 169.729 148.607 169.68 148.623 169.664C148.623 169.664 148.663 169.624 148.671 169.624C148.776 169.52 148.946 169.512 149.051 169.608C149.156 169.705 149.164 169.873 149.067 169.977C149.051 169.994 149.035 170.01 149.011 170.026C148.978 170.058 148.954 170.082 148.922 170.114L148.736 170.299C148.647 170.387 148.534 170.499 148.405 170.628C148.381 170.652 148.348 170.684 148.316 170.724L148.235 170.812C148.235 170.812 148.219 170.828 148.211 170.836C148.211 170.836 148.195 170.853 148.187 170.861C146.716 172.386 143.371 176.159 143.823 178.407C144.034 179.443 144.615 180.005 145.609 180.117C149.067 180.494 155.693 175.493 156.291 174.168C156.582 173.51 156.978 169.528 156.606 168.444C156.558 168.308 156.63 168.155 156.768 168.107C156.905 168.059 157.058 168.131 157.107 168.268C157.535 169.512 157.131 173.598 156.776 174.377C156.065 175.966 149.625 180.655 145.973 180.655L145.965 180.639Z" fill="#2C163A"/>
<path d="M168.637 46.4422C168.338 46.4341 168.007 46.4181 167.692 46.2976C167.304 46.1451 167.029 45.832 166.981 45.4788C166.916 45.0212 167.191 44.676 167.441 44.3629C167.498 44.2906 167.562 44.2104 167.611 44.1381C168.128 43.4076 167.991 42.2836 167.304 41.6976C167.191 41.6012 167.183 41.4327 167.28 41.3283C167.377 41.2159 167.546 41.2079 167.651 41.3042C168.532 42.0588 168.71 43.4959 168.039 44.4432C167.983 44.5235 167.918 44.6118 167.845 44.692C167.651 44.9409 167.465 45.1737 167.498 45.4065C167.522 45.5671 167.676 45.7277 167.886 45.816C168.112 45.9043 168.37 45.9123 168.645 45.9284L168.629 46.4582L168.637 46.4422Z" fill="#2C163A"/>
<path d="M173.016 43.9455C172.936 43.9455 172.847 43.9053 172.798 43.8331C172.192 42.958 171.069 42.4683 170.011 42.6208C169.865 42.6369 169.728 42.5405 169.712 42.396C169.687 42.2515 169.793 42.1151 169.938 42.099C171.19 41.9224 172.515 42.4924 173.235 43.536C173.315 43.6564 173.283 43.817 173.17 43.9053C173.121 43.9374 173.073 43.9535 173.016 43.9535V43.9455Z" fill="#2C163A"/>
<path d="M169.704 48.8586C169.284 48.8586 168.863 48.698 168.572 48.393C168.476 48.2886 168.476 48.12 168.581 48.0237C168.686 47.9273 168.855 47.9273 168.952 48.0317C169.284 48.3769 169.914 48.4331 170.294 48.1361C170.407 48.0478 170.576 48.0718 170.665 48.1842C170.754 48.2966 170.73 48.4652 170.617 48.5535C170.358 48.7542 170.027 48.8506 169.696 48.8506L169.704 48.8586Z" fill="#2C163A"/>
<path d="M174.156 114.263C174.091 114.263 174.026 114.239 173.97 114.191C173.865 114.086 173.857 113.926 173.962 113.821L177.388 110.257C177.485 110.153 177.654 110.145 177.759 110.249C177.864 110.353 177.873 110.514 177.767 110.618L174.342 114.183C174.293 114.239 174.22 114.263 174.148 114.263H174.156Z" fill="#2C163A"/>
<path d="M126.064 83.6039C125.466 83.6039 124.981 83.3149 124.795 82.8332C124.569 82.2552 124.836 81.6451 125.118 81.1152L125.151 81.051C125.514 80.3766 125.926 79.614 126.476 78.9717C126.67 78.747 126.856 78.5623 127.049 78.4098C127.55 78.0003 128.076 77.7515 128.601 77.6792C129.538 77.5588 130.395 77.9682 131.227 78.3696C131.752 78.6185 132.285 78.8834 132.827 78.9958C132.972 79.0279 133.061 79.1644 133.029 79.3089C132.996 79.4534 132.859 79.5417 132.713 79.5096C132.116 79.3892 131.542 79.1082 130.992 78.8433C130.201 78.4579 129.449 78.0967 128.665 78.2011C128.237 78.2572 127.801 78.466 127.381 78.8112C127.219 78.9477 127.049 79.1082 126.872 79.3089C126.363 79.903 125.959 80.6416 125.611 81.2999L125.361 81.2035L125.595 81.324L125.579 81.3561C125.353 81.7655 125.143 82.2472 125.288 82.6245C125.425 82.9777 125.846 83.0741 126.153 83.05C126.169 83.05 126.193 83.05 126.217 83.05C126.985 82.9456 127.696 82.3194 127.987 81.5006C128.027 81.3962 128.116 81.332 128.229 81.324C128.326 81.324 128.439 81.3802 128.48 81.4845C128.827 82.2793 129.667 82.7851 130.427 82.6486C130.572 82.6245 130.71 82.7208 130.734 82.8653C130.758 83.0098 130.661 83.1463 130.516 83.1704C129.675 83.3149 128.795 82.9055 128.261 82.1669C127.825 82.9296 127.098 83.4594 126.298 83.5718C126.274 83.5718 126.233 83.5798 126.193 83.5798C126.144 83.5798 126.096 83.5798 126.056 83.5798L126.064 83.6039Z" fill="#2C163A"/>
<path d="M121.426 83.3069C121.337 83.3069 121.248 83.2988 121.159 83.2748C120.731 83.1784 120.4 82.8814 120.287 82.48C120.125 81.91 120.416 81.2918 121.086 80.7299C122.751 79.3571 124.706 78.5141 126.759 78.2893C126.904 78.2733 127.033 78.3777 127.049 78.5222C127.066 78.6667 126.961 78.7951 126.815 78.8112C124.868 79.0199 123.009 79.8227 121.426 81.1313C121.135 81.3721 120.658 81.8538 120.796 82.3355C120.868 82.5843 121.086 82.7128 121.272 82.7529C121.329 82.769 121.385 82.769 121.442 82.769C121.757 82.761 122.08 82.5844 122.395 82.4158C123.413 81.8618 124.351 81.3801 125.264 80.9386L125.385 80.8744C125.514 80.8102 125.676 80.8583 125.74 80.9948C125.805 81.1232 125.757 81.2838 125.619 81.348L125.49 81.4123C124.577 81.8538 123.648 82.3355 122.646 82.8734C122.282 83.066 121.886 83.2828 121.45 83.2988C121.434 83.2988 121.426 83.2988 121.41 83.2988L121.426 83.3069Z" fill="#2C163A"/>
<path d="M121.959 85.1052C121.806 85.1052 121.644 85.0891 121.482 85.0409C121.038 84.9125 120.69 84.5833 120.569 84.1739C120.432 83.7163 120.618 83.0901 121.103 82.9296C121.24 82.8814 121.393 82.9536 121.442 83.0982C121.49 83.2346 121.418 83.3872 121.272 83.4353C121.111 83.4915 121.006 83.7966 121.078 84.0294C121.159 84.3104 121.418 84.479 121.628 84.5432C121.902 84.6235 122.218 84.5753 122.484 84.5271L122.573 84.776L122.525 84.5191C123.761 84.2943 124.941 83.8207 126.031 83.1222L126.193 83.0098C126.314 82.9296 126.476 82.9617 126.557 83.0821C126.637 83.2025 126.605 83.3631 126.484 83.4434L126.314 83.5557C125.159 84.3024 123.914 84.8001 122.614 85.0329L122.573 85.0409C122.379 85.073 122.169 85.1052 121.951 85.1052H121.959Z" fill="#2C163A"/>
<path d="M124.011 86.0605C123.325 86.0605 122.622 85.7474 122.363 85.0329C122.315 84.8964 122.387 84.7439 122.525 84.6957C122.662 84.6475 122.816 84.7198 122.864 84.8563C123.09 85.4744 123.842 85.643 124.44 85.4905C124.771 85.4022 125.086 85.2577 125.417 85.0971C125.765 84.9285 126.12 84.7599 126.508 84.6636C127.332 84.4549 128.156 84.6074 128.956 84.7519C129.231 84.8001 129.514 84.8563 129.797 84.8884C130.378 84.9606 131.8 85.0168 132.439 83.9411C132.512 83.8126 132.673 83.7725 132.802 83.8447C132.932 83.917 132.972 84.0776 132.899 84.206C132.342 85.1533 131.186 85.5949 129.732 85.4102C129.441 85.3701 129.15 85.3219 128.867 85.2657C128.092 85.1212 127.356 84.9928 126.645 85.1694C126.314 85.2577 125.991 85.4102 125.66 85.5708C125.32 85.7313 124.965 85.9079 124.585 86.0043C124.407 86.0525 124.221 86.0765 124.028 86.0765L124.011 86.0605Z" fill="#2C163A"/>
<path d="M171.449 96.6174C171.449 96.6174 171.4 96.6174 171.376 96.6093C171.239 96.5692 171.15 96.4247 171.19 96.2882C171.376 95.6379 171.562 94.9556 171.909 94.3374C172.184 93.8316 172.685 93.1653 173.485 92.8442C173.687 92.7639 173.897 92.7077 174.115 92.6756C174.544 92.6033 174.98 92.6194 175.408 92.6274C175.99 92.6435 176.539 92.6515 177.032 92.4749C177.17 92.4267 177.323 92.499 177.372 92.6355C177.42 92.7719 177.347 92.9245 177.21 92.9726C176.62 93.1814 175.998 93.1653 175.392 93.1492C174.972 93.1412 174.576 93.1332 174.196 93.1894C174.018 93.2135 173.841 93.2616 173.679 93.3259C173.17 93.5266 172.709 93.9761 172.378 94.5782C172.063 95.1482 171.885 95.7905 171.707 96.4167C171.675 96.529 171.57 96.6093 171.449 96.6093V96.6174Z" fill="#2C163A"/>
<path d="M169.332 101.153C169.049 101.153 168.75 101.097 168.532 100.88C168.314 100.672 168.225 100.334 168.298 99.9972C168.354 99.7162 168.5 99.4753 168.629 99.2746C169.356 98.1427 170.342 97.1392 171.473 96.3845C171.853 96.1357 172.249 95.9029 172.653 95.7022C172.782 95.6379 172.944 95.6941 173.008 95.8226C173.073 95.951 173.016 96.1116 172.887 96.1758C172.499 96.3605 172.128 96.5772 171.764 96.8181C170.689 97.5326 169.76 98.4799 169.065 99.5556C168.952 99.7242 168.847 99.9089 168.807 100.093C168.774 100.262 168.807 100.423 168.896 100.503C169.041 100.647 169.316 100.639 169.566 100.607C169.615 100.607 169.655 100.591 169.712 100.575C170.657 100.342 172.887 99.0258 173.695 98.3675C173.808 98.2711 173.978 98.2872 174.067 98.3996C174.164 98.512 174.148 98.6806 174.035 98.7689C173.17 99.4834 170.9 100.832 169.841 101.089C169.76 101.105 169.688 101.121 169.623 101.129C169.534 101.137 169.429 101.145 169.332 101.145V101.153Z" fill="#2C163A"/>
<path d="M171.893 102.317C171.683 102.317 171.465 102.293 171.255 102.221C170.681 102.036 170.277 101.531 170.277 101.001C170.277 100.856 170.399 100.736 170.544 100.736C170.689 100.736 170.811 100.856 170.811 101.001C170.811 101.346 171.118 101.627 171.425 101.723C171.74 101.828 172.111 101.82 172.612 101.691C172.871 101.627 173.113 101.547 173.332 101.458C174.035 101.185 174.697 100.768 175.238 100.246C175.343 100.142 175.513 100.15 175.61 100.246C175.715 100.35 175.707 100.519 175.61 100.615C175.02 101.177 174.301 101.635 173.534 101.932C173.291 102.028 173.033 102.109 172.75 102.181C172.515 102.237 172.225 102.301 171.901 102.301L171.893 102.317Z" fill="#2C163A"/>
<path d="M175.012 102.406C174.616 102.406 174.253 102.293 173.978 102.068C173.865 101.98 173.849 101.811 173.938 101.699C174.026 101.587 174.196 101.571 174.309 101.659C174.552 101.852 174.907 101.924 175.287 101.852C175.667 101.787 176.022 101.603 176.353 101.41C177.832 100.551 179.149 99.3549 180.143 97.966C180.232 97.8456 180.393 97.8215 180.515 97.9018C180.636 97.9901 180.66 98.1507 180.579 98.2711C179.537 99.7242 178.171 100.961 176.628 101.86C176.256 102.076 175.852 102.285 175.392 102.365C175.271 102.389 175.141 102.398 175.02 102.398L175.012 102.406Z" fill="#2C163A"/>
<path d="M184.361 86.0765C184.361 86.0765 184.353 86.0765 184.345 86.0765C184.199 86.0685 184.086 85.9401 184.094 85.7956L184.829 73.7053C184.837 73.5689 184.951 73.4565 185.096 73.4565C185.241 73.4565 185.355 73.5769 185.355 73.7214L184.619 85.8277C184.611 85.9642 184.498 86.0765 184.353 86.0765H184.361Z" fill="#2C163A"/>
<path d="M18.495 70.6146C18.4466 70.6146 18.3981 70.5985 18.3496 70.5744C17.3881 69.9482 16.467 69.2337 15.6024 68.447C15.4974 68.3507 15.4893 68.1821 15.5863 68.0777C15.6832 67.9733 15.8529 67.9653 15.9579 68.0617C16.7983 68.8323 17.7032 69.5308 18.6405 70.1329C18.7617 70.2132 18.794 70.3737 18.7132 70.4941C18.6647 70.5744 18.5758 70.6146 18.495 70.6146ZM13.7683 66.4159C13.6955 66.4159 13.6147 66.3838 13.5663 66.3196C12.831 65.4445 12.1442 64.4972 11.5382 63.5098C11.4655 63.3893 11.5059 63.2208 11.6271 63.1485C11.7483 63.0762 11.9179 63.1164 11.9907 63.2368C12.5805 64.2002 13.2511 65.1314 13.9703 65.9904C14.0672 66.1028 14.0511 66.2714 13.9379 66.3597C13.8895 66.3998 13.8248 66.4239 13.7683 66.4239V66.4159ZM10.407 61.0773C10.302 61.0773 10.205 61.0211 10.1646 60.9247C9.68788 59.8731 9.29196 58.7812 8.97684 57.6734C8.93644 57.5369 9.01724 57.3844 9.16268 57.3523C9.30004 57.3121 9.45356 57.3924 9.48588 57.5369C9.79292 58.6127 10.1808 59.6884 10.6494 60.716C10.706 60.8525 10.6494 61.005 10.5201 61.0612C10.4878 61.0773 10.4474 61.0853 10.4151 61.0853L10.407 61.0773ZM8.62132 55.0322C8.49204 55.0322 8.37892 54.9358 8.36276 54.8074C8.20116 53.7236 8.12036 52.6318 8.12036 51.556V51.3553C8.12036 51.2108 8.24964 51.0984 8.387 51.0984C8.53244 51.0984 8.65364 51.2188 8.64556 51.3633V51.564C8.64556 52.6157 8.72636 53.6834 8.87988 54.7351C8.90412 54.8796 8.79908 55.0161 8.65364 55.0322C8.63748 55.0322 8.6294 55.0322 8.61324 55.0322H8.62132ZM8.61324 48.7382C8.61324 48.7382 8.589 48.7382 8.57284 48.7382C8.4274 48.7141 8.33044 48.5856 8.3466 48.4411C8.51628 47.3092 8.78292 46.1772 9.14652 45.0694C9.195 44.9329 9.34044 44.8526 9.4778 44.9008C9.61516 44.9489 9.69596 45.0935 9.64748 45.2299C9.30004 46.3057 9.0334 47.4136 8.8718 48.5134C8.85564 48.6418 8.74252 48.7382 8.61324 48.7382ZM10.4716 42.7172C10.4716 42.7172 10.3989 42.7091 10.3585 42.6931C10.2292 42.6288 10.1727 42.4763 10.2292 42.3398C10.7221 41.3042 11.3039 40.2927 11.9503 39.3374C12.0311 39.2169 12.1927 39.1848 12.3219 39.2651C12.4431 39.3454 12.4755 39.5059 12.3947 39.6344C11.7563 40.5737 11.1908 41.5611 10.706 42.5727C10.6575 42.669 10.5686 42.7252 10.4636 42.7252L10.4716 42.7172ZM13.9541 37.4508C13.8895 37.4508 13.8329 37.4267 13.7763 37.3865C13.6632 37.2902 13.6551 37.1216 13.7521 37.0173C14.5116 36.1502 15.3439 35.3314 16.2246 34.5848C16.3377 34.4884 16.4993 34.5045 16.5963 34.6169C16.6932 34.7293 16.6771 34.8898 16.5639 34.9862C15.7075 35.7167 14.8914 36.5115 14.148 37.3705C14.0995 37.4267 14.0187 37.4588 13.946 37.4588L13.9541 37.4508ZM18.7294 33.3083C18.6405 33.3083 18.5597 33.2682 18.5112 33.1879C18.4304 33.0675 18.4627 32.9069 18.592 32.8266C19.5697 32.1924 20.5958 31.6304 21.6462 31.1648C21.7836 31.1086 21.9371 31.1648 21.9937 31.3013C22.0502 31.4378 21.9937 31.5903 21.8644 31.6465C20.8382 32.1041 19.8363 32.65 18.8829 33.2682C18.8344 33.3003 18.7859 33.3083 18.7374 33.3083H18.7294ZM24.4823 30.6671C24.3692 30.6671 24.2641 30.5948 24.2318 30.4824C24.1914 30.346 24.2722 30.1934 24.4096 30.1533C25.2095 29.9205 26.0417 29.7117 26.8417 29.511C27.1487 29.4388 27.4477 29.3585 27.7466 29.2863C27.8921 29.2541 28.0294 29.3344 28.0698 29.4789C28.1102 29.6234 28.0213 29.7599 27.8759 29.8001C27.5689 29.8803 27.2699 29.9526 26.9629 30.0329C26.1629 30.2336 25.3388 30.4343 24.5469 30.6671C24.5227 30.6671 24.4985 30.6751 24.4742 30.6751L24.4823 30.6671ZM30.6069 28.9732C30.5019 28.9732 30.3968 28.9089 30.3564 28.7965C30.308 28.6601 30.3807 28.5075 30.518 28.4594C31.7058 28.0339 32.6916 27.5361 33.5157 26.9501C33.6369 26.8618 33.7985 26.8939 33.8874 27.0143C33.9763 27.1347 33.944 27.2953 33.8228 27.3836C32.9582 28.0018 31.932 28.5156 30.6958 28.9571C30.6635 28.9651 30.6392 28.9732 30.6069 28.9732ZM35.7458 25.4167C35.6892 25.4167 35.6327 25.4007 35.5842 25.3606C35.4711 25.2722 35.4468 25.1037 35.5357 24.9913C36.1579 24.1804 36.7073 23.2331 37.2083 22.0851C37.2648 21.9486 37.4183 21.8924 37.5557 21.9486C37.6931 22.0048 37.7496 22.1654 37.6931 22.2938C37.1759 23.482 36.6023 24.4694 35.9559 25.3124C35.9074 25.3766 35.8266 25.4167 35.7458 25.4167ZM38.4526 19.7329C38.4526 19.7329 38.396 19.7329 38.3718 19.7168C38.2344 19.6687 38.1536 19.5242 38.2021 19.3877C38.4122 18.7294 38.6223 18.055 38.8162 17.3967C38.9455 16.9713 39.0747 16.5377 39.204 16.1123C39.2444 15.9758 39.3979 15.8955 39.5353 15.9356C39.6727 15.9758 39.7535 16.1283 39.7131 16.2648C39.5838 16.6903 39.4545 17.1158 39.3252 17.5413C39.1232 18.1995 38.9212 18.8819 38.7031 19.5402C38.6707 19.6526 38.5657 19.7249 38.4526 19.7249V19.7329ZM40.4079 13.7199C40.4079 13.7199 40.3433 13.7199 40.311 13.7038C40.1736 13.6477 40.109 13.4951 40.1575 13.3586C40.2221 13.1981 40.2867 13.0456 40.3514 12.885C40.7311 11.9859 41.1917 11.1028 41.7088 10.2518C41.7896 10.1314 41.9512 10.0912 42.0724 10.1635C42.1936 10.2438 42.234 10.4043 42.1613 10.5247C41.6522 11.3436 41.2079 12.2106 40.8362 13.0857C40.7715 13.2382 40.7069 13.3908 40.6503 13.5433C40.6099 13.6477 40.513 13.7119 40.3999 13.7119L40.4079 13.7199ZM43.648 8.31704C43.5914 8.31704 43.5268 8.29296 43.4783 8.25282C43.3652 8.15648 43.349 7.99592 43.446 7.88353C44.1813 7.00847 45.0135 6.18158 45.9023 5.42695C46.0154 5.33061 46.177 5.34667 46.274 5.45906C46.371 5.57145 46.3548 5.73201 46.2417 5.82835C45.3771 6.56693 44.5691 7.36973 43.85 8.22873C43.8015 8.29296 43.7207 8.32507 43.648 8.32507V8.31704ZM48.399 4.15852C48.3101 4.15852 48.2293 4.11838 48.1728 4.0381C48.092 3.91768 48.1243 3.75712 48.2536 3.67684C49.2232 3.05065 50.2493 2.48869 51.3078 2.01504C51.4452 1.95884 51.5987 2.01504 51.6553 2.14348C51.7118 2.27193 51.6553 2.43249 51.526 2.48869C50.4917 2.95432 49.4898 3.50022 48.5445 4.11838C48.496 4.15049 48.4475 4.15852 48.399 4.15852ZM54.1439 1.48519C54.0308 1.48519 53.9257 1.41293 53.8934 1.30054C53.853 1.16406 53.9257 1.01153 54.0712 0.971392C55.1862 0.634215 56.3336 0.377317 57.4728 0.216757C57.6183 0.192673 57.7556 0.297037 57.7718 0.441542C57.796 0.586046 57.691 0.722523 57.5456 0.738579C56.4305 0.89914 55.3155 1.14801 54.2247 1.47716C54.2004 1.47716 54.1762 1.48519 54.1439 1.48519ZM63.8318 0.818859C63.8318 0.818859 63.7995 0.818859 63.7833 0.818859C62.6925 0.626186 61.5694 0.52985 60.4463 0.52985H60.4059C60.2604 0.52985 60.1392 0.40943 60.1392 0.264925C60.1392 0.12042 60.2604 0 60.4059 0H60.4463C61.6017 0 62.7571 0.0963364 63.8802 0.297037C64.0257 0.321121 64.1227 0.457598 64.0984 0.602102C64.0742 0.730551 63.9611 0.818859 63.8399 0.818859H63.8318Z" fill="#2C163A"/>
<path d="M204.197 69.1695C204.132 69.1695 204.068 69.1454 204.011 69.0973C203.906 68.9929 203.898 68.8324 204.003 68.728C204.779 67.9172 205.506 67.0421 206.16 66.1108C206.241 65.9904 206.411 65.9663 206.532 66.0466C206.653 66.1269 206.678 66.2955 206.597 66.4159C205.926 67.3632 205.183 68.2624 204.391 69.0892C204.342 69.1454 204.27 69.1695 204.197 69.1695ZM207.898 64.0557C207.857 64.0557 207.817 64.0476 207.776 64.0236C207.647 63.9593 207.599 63.7988 207.663 63.6703C208.197 62.6749 208.657 61.6392 209.037 60.5795C209.085 60.4431 209.239 60.3708 209.376 60.419C209.514 60.4671 209.586 60.6197 209.538 60.7562C209.15 61.8399 208.673 62.9077 208.132 63.9192C208.083 64.0075 207.995 64.0557 207.898 64.0557ZM210.095 58.147C210.095 58.147 210.055 58.147 210.039 58.147C209.893 58.1149 209.805 57.9704 209.837 57.834C210.087 56.7341 210.257 55.6102 210.338 54.4943C210.346 54.3498 210.467 54.2374 210.621 54.2534C210.766 54.2615 210.879 54.3899 210.863 54.5344C210.774 55.6744 210.604 56.8304 210.346 57.9544C210.322 58.0748 210.209 58.1631 210.087 58.1631L210.095 58.147ZM210.637 51.8772C210.499 51.8772 210.378 51.7648 210.37 51.6283C210.305 50.5124 210.16 49.3885 209.926 48.2806C209.893 48.1361 209.99 47.9996 210.128 47.9675C210.273 47.9354 210.411 48.0317 210.443 48.1682C210.685 49.3002 210.831 50.4562 210.895 51.5962C210.903 51.7407 210.79 51.8691 210.645 51.8772C210.645 51.8772 210.637 51.8772 210.629 51.8772H210.637ZM209.417 45.6956C209.304 45.6956 209.207 45.6233 209.166 45.519C208.803 44.4512 208.35 43.4076 207.833 42.4041C207.768 42.2756 207.817 42.1151 207.946 42.0508C208.075 41.9866 208.237 42.0348 208.302 42.1632C208.827 43.1908 209.287 44.2585 209.659 45.3423C209.708 45.4788 209.635 45.6313 209.497 45.6795C209.473 45.6875 209.441 45.6956 209.409 45.6956H209.417ZM206.589 40.0519C206.5 40.0519 206.419 40.0117 206.371 39.9395C205.732 39.0002 205.021 38.1091 204.262 37.2902C204.165 37.1859 204.173 37.0173 204.278 36.9209C204.383 36.8246 204.553 36.8326 204.65 36.937C205.425 37.7799 206.152 38.6951 206.807 39.6505C206.888 39.7709 206.855 39.9314 206.734 40.0197C206.686 40.0519 206.637 40.0679 206.589 40.0679V40.0519ZM202.347 35.3715C202.29 35.3715 202.226 35.3474 202.177 35.3073C201.288 34.5607 200.351 33.8703 199.462 33.228C199.341 33.1397 199.317 32.9792 199.406 32.8587C199.494 32.7383 199.656 32.7142 199.777 32.8025C200.674 33.4528 201.62 34.1432 202.524 34.8979C202.638 34.9942 202.654 35.1548 202.557 35.2672C202.5 35.3314 202.428 35.3635 202.355 35.3635L202.347 35.3715ZM197.272 31.5582C197.216 31.5582 197.159 31.5422 197.111 31.502C196.028 30.6751 195.188 29.9526 194.485 29.2381C194.38 29.1337 194.38 28.9652 194.485 28.8688C194.59 28.7645 194.76 28.7645 194.857 28.8688C195.551 29.5673 196.368 30.2737 197.434 31.0846C197.547 31.1729 197.571 31.3414 197.483 31.4538C197.434 31.5181 197.353 31.5582 197.272 31.5582ZM192.853 27.0705C192.764 27.0705 192.675 27.0304 192.627 26.9501C192.497 26.7494 192.376 26.5487 192.263 26.34C191.843 25.5773 191.495 24.7344 191.204 23.763C191.164 23.6265 191.245 23.474 191.382 23.4338C191.52 23.3937 191.673 23.474 191.713 23.6105C191.996 24.5497 192.328 25.3525 192.732 26.0831C192.837 26.2758 192.958 26.4765 193.079 26.6611C193.16 26.7815 193.119 26.9501 192.998 27.0224C192.958 27.0465 192.909 27.0625 192.861 27.0625L192.853 27.0705ZM190.784 21.1378C190.663 21.1378 190.55 21.0495 190.526 20.9211C190.453 20.5598 190.388 20.1905 190.316 19.8293C190.178 19.0826 190.033 18.312 189.863 17.5653C189.831 17.4208 189.92 17.2844 190.065 17.2523C190.211 17.2201 190.348 17.3084 190.38 17.453C190.55 18.2076 190.695 18.9863 190.833 19.7329C190.897 20.0942 190.97 20.4554 191.035 20.8167C191.059 20.9612 190.97 21.0977 190.825 21.1218C190.809 21.1218 190.792 21.1218 190.776 21.1218L190.784 21.1378ZM189.314 14.9964C189.209 14.9964 189.104 14.9322 189.063 14.8278C188.659 13.8002 188.126 12.8047 187.471 11.8735C187.391 11.7531 187.415 11.5925 187.536 11.5042C187.657 11.4239 187.819 11.448 187.908 11.5684C188.587 12.5318 189.144 13.5674 189.556 14.6351C189.613 14.7716 189.54 14.9241 189.403 14.9723C189.37 14.9883 189.338 14.9883 189.306 14.9883L189.314 14.9964ZM165.437 9.82632C165.365 9.82632 165.3 9.80224 165.252 9.74605C165.147 9.64168 165.155 9.47309 165.252 9.37676C166.076 8.57395 167.013 7.86749 168.039 7.27341C168.168 7.20116 168.33 7.2413 168.403 7.36975C168.475 7.4982 168.435 7.65876 168.306 7.73101C167.32 8.301 166.415 8.98338 165.623 9.7621C165.575 9.81027 165.502 9.83435 165.437 9.83435V9.82632ZM185.799 9.79421C185.734 9.79421 185.67 9.77013 185.613 9.72196C184.797 8.94324 183.892 8.26086 182.931 7.68284C182.801 7.61059 182.761 7.45003 182.842 7.32158C182.914 7.19313 183.076 7.15299 183.205 7.23327C184.207 7.82735 185.136 8.53381 185.985 9.34464C186.09 9.44901 186.09 9.60957 185.985 9.71393C185.936 9.77013 185.864 9.79421 185.791 9.79421H185.799ZM170.819 6.54286C170.706 6.54286 170.609 6.47864 170.568 6.36624C170.52 6.22977 170.592 6.07723 170.73 6.02907C171.837 5.64372 172.984 5.38682 174.14 5.25838C174.285 5.24232 174.414 5.34668 174.43 5.49119C174.447 5.63569 174.342 5.76414 174.196 5.7802C173.081 5.90062 171.966 6.14949 170.899 6.51878C170.867 6.5268 170.843 6.53483 170.811 6.53483L170.819 6.54286ZM180.434 6.48666C180.434 6.48666 180.377 6.48666 180.345 6.47061C179.852 6.29399 179.343 6.14949 178.834 6.03709C178.252 5.90865 177.654 5.81231 177.048 5.75611C176.903 5.74006 176.798 5.61161 176.806 5.4671C176.822 5.3226 176.943 5.21824 177.097 5.22626C177.719 5.28246 178.341 5.3788 178.947 5.51527C179.472 5.63569 179.998 5.78823 180.515 5.96484C180.652 6.01301 180.725 6.16554 180.676 6.30202C180.636 6.40638 180.539 6.47864 180.426 6.47864L180.434 6.48666Z" fill="#2C163A"/>
<path d="M103.274 44.9631C107.137 41.1257 107.137 34.904 103.274 31.0666C99.4122 27.2292 93.1503 27.2292 89.288 31.0666C85.4258 34.904 85.4258 41.1257 89.288 44.9631C93.1502 48.8005 99.4122 48.8005 103.274 44.9631Z" fill="#2C163A"/>
<path d="M137.699 34.0148H113.023C112.877 34.0148 112.756 33.8944 112.756 33.7499C112.756 33.6053 112.877 33.4849 113.023 33.4849H137.699C137.844 33.4849 137.965 33.6053 137.965 33.7499C137.965 33.8944 137.844 34.0148 137.699 34.0148Z" fill="#2C163A"/>
<path d="M137.699 36.648H113.023C112.877 36.648 112.756 36.5276 112.756 36.3831C112.756 36.2386 112.877 36.1181 113.023 36.1181H137.699C137.844 36.1181 137.965 36.2386 137.965 36.3831C137.965 36.5276 137.844 36.648 137.699 36.648Z" fill="#2C163A"/>
<path d="M137.699 39.2812H113.023C112.877 39.2812 112.756 39.1607 112.756 39.0162C112.756 38.8717 112.877 38.7513 113.023 38.7513H137.699C137.844 38.7513 137.965 38.8717 137.965 39.0162C137.965 39.1607 137.844 39.2812 137.699 39.2812Z" fill="#2C163A"/>
<path d="M137.699 41.9144H113.023C112.877 41.9144 112.756 41.794 112.756 41.6494C112.756 41.5049 112.877 41.3845 113.023 41.3845H137.699C137.844 41.3845 137.965 41.5049 137.965 41.6494C137.965 41.794 137.844 41.9144 137.699 41.9144Z" fill="#2C163A"/>
<path d="M96.281 74.4279C92.5561 74.4279 89.1302 72.4048 87.3526 69.1454C87.2799 69.017 87.3284 68.8564 87.4577 68.7922C87.5869 68.7199 87.7486 68.7681 87.8132 68.8966C89.5019 71.9874 92.742 73.9061 96.2729 73.9061C101.581 73.9061 105.896 69.6191 105.896 64.3447C105.896 59.0703 101.581 54.7833 96.2729 54.7833C95.3195 54.7833 94.3822 54.9198 93.4853 55.1927C93.348 55.2329 93.1945 55.1526 93.1541 55.0161C93.1137 54.8796 93.1945 54.7271 93.3318 54.6869C94.2853 54.3979 95.271 54.2534 96.2729 54.2534C101.872 54.2534 106.429 58.7812 106.429 64.3447C106.429 69.9081 101.872 74.4359 96.2729 74.4359L96.281 74.4279Z" fill="#2C163A"/>
<path d="M137.699 60.3467H113.023C112.877 60.3467 112.756 60.2263 112.756 60.0818C112.756 59.9373 112.877 59.8169 113.023 59.8169H137.699C137.844 59.8169 137.966 59.9373 137.966 60.0818C137.966 60.2263 137.844 60.3467 137.699 60.3467Z" fill="#2C163A"/>
<path d="M137.699 62.9719H113.023C112.877 62.9719 112.756 62.8514 112.756 62.7069C112.756 62.5624 112.877 62.442 113.023 62.442H137.699C137.844 62.442 137.966 62.5624 137.966 62.7069C137.966 62.8514 137.844 62.9719 137.699 62.9719Z" fill="#2C163A"/>
<path d="M137.699 65.6051H113.023C112.877 65.6051 112.756 65.4846 112.756 65.3401C112.756 65.1956 112.877 65.0752 113.023 65.0752H137.699C137.844 65.0752 137.966 65.1956 137.966 65.3401C137.966 65.4846 137.844 65.6051 137.699 65.6051Z" fill="#2C163A"/>
<path d="M137.699 68.2383H113.023C112.877 68.2383 112.756 68.1178 112.756 67.9733C112.756 67.8288 112.877 67.7084 113.023 67.7084H137.699C137.844 67.7084 137.966 67.8288 137.966 67.9733C137.966 68.1178 137.844 68.2383 137.699 68.2383Z" fill="#2C163A"/>
<path d="M104.694 95.8426C107.566 91.2263 106.127 85.171 101.481 82.3177C96.835 79.4644 90.7405 80.8936 87.8687 85.5099C84.997 90.1261 86.4354 96.1815 91.0816 99.0348C95.7277 101.888 101.822 100.459 104.694 95.8426Z" fill="#61AE45"/>
<path d="M96.2809 100.76C90.6815 100.76 86.1244 96.232 86.1244 90.6686C86.1244 85.1052 90.6815 80.5774 96.2809 80.5774C101.88 80.5774 106.437 85.1052 106.437 90.6686C106.437 96.232 101.88 100.76 96.2809 100.76ZM96.2809 81.1072C90.9724 81.1072 86.6577 85.3942 86.6577 90.6686C86.6577 95.943 90.9724 100.23 96.2809 100.23C101.589 100.23 105.904 95.943 105.904 90.6686C105.904 85.3942 101.589 81.1072 96.2809 81.1072Z" fill="#2C163A"/>
<path d="M137.699 89.3038H113.023C112.877 89.3038 112.756 89.1834 112.756 89.0389C112.756 88.8944 112.877 88.774 113.023 88.774H137.699C137.844 88.774 137.965 88.8944 137.965 89.0389C137.965 89.1834 137.844 89.3038 137.699 89.3038Z" fill="#2C163A"/>
<path d="M137.699 91.937H113.023C112.877 91.937 112.756 91.8166 112.756 91.6721C112.756 91.5276 112.877 91.4072 113.023 91.4072H137.699C137.844 91.4072 137.965 91.5276 137.965 91.6721C137.965 91.8166 137.844 91.937 137.699 91.937Z" fill="#2C163A"/>
<path d="M137.699 94.5702H113.023C112.877 94.5702 112.756 94.4498 112.756 94.3053C112.756 94.1608 112.877 94.0404 113.023 94.0404H137.699C137.844 94.0404 137.965 94.1608 137.965 94.3053C137.965 94.4498 137.844 94.5702 137.699 94.5702Z" fill="#2C163A"/>
<path d="M124.593 130.544H105.638C101.67 130.544 98.4464 127.341 98.4464 123.399C98.4464 119.457 101.67 116.254 105.638 116.254H124.593C128.56 116.254 131.784 119.457 131.784 123.399C131.784 127.341 128.56 130.544 124.593 130.544ZM105.638 116.784C101.961 116.784 98.9797 119.754 98.9797 123.399C98.9797 127.044 101.969 130.014 105.638 130.014H124.593C128.27 130.014 131.251 127.044 131.251 123.399C131.251 119.754 128.262 116.784 124.593 116.784H105.638Z" fill="#2C163A"/>
<path d="M111.479 123.945C111.609 124.113 111.681 124.322 111.681 124.579C111.681 124.924 111.552 125.181 111.294 125.366C111.035 125.55 110.655 125.639 110.162 125.639H108.264V121.689H110.041C110.494 121.689 110.849 121.777 111.092 121.962C111.342 122.138 111.463 122.395 111.463 122.708C111.463 122.917 111.415 123.094 111.318 123.246C111.221 123.399 111.092 123.511 110.93 123.592C111.164 123.656 111.342 123.768 111.471 123.937L111.479 123.945ZM108.829 122.155V123.415H109.993C110.284 123.415 110.51 123.359 110.663 123.254C110.817 123.15 110.898 122.989 110.898 122.781C110.898 122.572 110.817 122.419 110.663 122.307C110.51 122.203 110.284 122.146 109.993 122.146H108.829V122.155ZM110.865 125.029C111.027 124.924 111.108 124.756 111.108 124.531C111.108 124.089 110.784 123.873 110.138 123.873H108.829V125.189H110.138C110.461 125.189 110.704 125.133 110.865 125.029Z" fill="#2C163A"/>
<path d="M114.105 125.237C113.806 124.94 113.661 124.507 113.661 123.937V121.697H114.227V123.921C114.227 124.764 114.598 125.189 115.342 125.189C115.705 125.189 115.98 125.085 116.174 124.876C116.368 124.667 116.465 124.346 116.465 123.921V121.697H117.014V123.937C117.014 124.507 116.869 124.94 116.57 125.237C116.271 125.534 115.859 125.687 115.334 125.687C114.808 125.687 114.388 125.534 114.097 125.237H114.105Z" fill="#2C163A"/>
<path d="M120.779 124.282V125.647H120.214V124.274L118.638 121.705H119.244L120.513 123.784L121.789 121.705H122.347L120.771 124.29L120.779 124.282Z" fill="#2C163A"/>
<path d="M16.6205 5.54736H12.9683C12.7259 5.54736 12.5078 5.67581 12.3866 5.88454L10.5605 9.03153C10.4393 9.24026 10.4393 9.49715 10.5605 9.69786L12.3866 12.8448C12.5078 13.0536 12.7259 13.182 12.9683 13.182H16.6205C16.8629 13.182 17.081 13.0536 17.2022 12.8448L19.0283 9.69786C19.1495 9.48913 19.1495 9.23223 19.0283 9.03153L17.2022 5.88454C17.081 5.67581 16.8629 5.54736 16.6205 5.54736Z" fill="#61AE45"/>
<path d="M18.0507 17.9025H14.3986C14.0673 17.9025 13.7522 17.7259 13.5825 17.4369L11.7564 14.2899C11.5867 14.0009 11.5867 13.6477 11.7564 13.3586L13.5825 10.2117C13.7522 9.92265 14.0592 9.74603 14.3986 9.74603H18.0507C18.382 9.74603 18.6971 9.92265 18.8668 10.2117L20.6929 13.3586C20.8625 13.6477 20.8625 14.0009 20.6929 14.2899L18.8668 17.4369C18.6971 17.7259 18.3901 17.9025 18.0507 17.9025ZM14.3986 10.2759C14.2531 10.2759 14.1158 10.3562 14.043 10.4766L12.217 13.6236C12.1442 13.752 12.1442 13.9046 12.217 14.033L14.043 17.18C14.1158 17.3084 14.2531 17.3807 14.3986 17.3807H18.0507C18.1961 17.3807 18.3335 17.3004 18.4062 17.18L20.2323 14.033C20.305 13.9046 20.305 13.752 20.2323 13.6236L18.4062 10.4766C18.3335 10.3481 18.1961 10.2759 18.0507 10.2759H14.3986Z" fill="#2C163A"/>
<path d="M212.495 109.245H208.843C208.601 109.245 208.383 109.374 208.261 109.583L206.435 112.73C206.314 112.938 206.314 113.195 206.435 113.396L208.261 116.543C208.383 116.752 208.601 116.88 208.843 116.88H212.495C212.738 116.88 212.956 116.752 213.077 116.543L214.903 113.396C215.024 113.187 215.024 112.93 214.903 112.73L213.077 109.583C212.956 109.374 212.738 109.245 212.495 109.245Z" fill="#61AE45"/>
<path d="M210.281 112.569H206.629C206.298 112.569 205.983 112.392 205.813 112.103L203.987 108.956C203.817 108.667 203.817 108.314 203.987 108.025L205.813 104.878C205.983 104.589 206.29 104.413 206.629 104.413H210.281C210.613 104.413 210.928 104.589 211.097 104.878L212.923 108.025C213.093 108.314 213.093 108.667 212.923 108.956L211.097 112.103C210.928 112.392 210.621 112.569 210.281 112.569ZM206.621 104.942C206.476 104.942 206.338 105.023 206.266 105.143L204.439 108.29C204.367 108.419 204.367 108.571 204.439 108.7L206.266 111.847C206.338 111.975 206.476 112.047 206.621 112.047H210.273C210.419 112.047 210.556 111.967 210.629 111.847L212.455 108.7C212.528 108.571 212.528 108.419 212.455 108.298L210.629 105.151C210.556 105.023 210.419 104.95 210.273 104.95H206.621V104.942Z" fill="#2C163A"/>
<path d="M13.631 103.77H11.4655C11.3201 103.77 11.1908 103.843 11.1181 103.971L10.0354 105.834C9.96266 105.954 9.96266 106.106 10.0354 106.227L11.1181 108.089C11.1908 108.21 11.3201 108.29 11.4655 108.29H13.631C13.7764 108.29 13.9057 108.218 13.9784 108.089L15.0611 106.227C15.1338 106.106 15.1338 105.954 15.0611 105.834L13.9784 103.971C13.9057 103.851 13.7764 103.77 13.631 103.77Z" fill="#61AE45"/>
<path d="M12.3219 105.85H10.1565C9.92215 105.85 9.70399 105.721 9.5828 105.52L8.50008 103.658C8.37888 103.457 8.37888 103.2 8.50008 103L9.5828 101.137C9.70399 100.936 9.92215 100.808 10.1565 100.808H12.3219C12.5562 100.808 12.7744 100.936 12.8956 101.137L13.9783 103C14.0995 103.2 14.0995 103.457 13.9783 103.658L12.8956 105.52C12.7744 105.721 12.5562 105.85 12.3219 105.85ZM10.1565 101.338C10.108 101.338 10.0676 101.362 10.0434 101.402L8.96064 103.265C8.9364 103.305 8.9364 103.353 8.96064 103.393L10.0434 105.256C10.0676 105.296 10.108 105.32 10.1565 105.32H12.3219C12.3704 105.32 12.4108 105.296 12.435 105.256L13.5177 103.393C13.542 103.353 13.542 103.305 13.5177 103.257L12.435 101.394C12.4108 101.354 12.3704 101.33 12.3219 101.33H10.1565V101.338Z" fill="#2C163A"/>
<path d="M201.167 7.0406H199.987C199.818 7.0406 199.656 6.95229 199.567 6.79976L198.977 5.78822C198.889 5.64372 198.889 5.45907 198.977 5.30654L199.567 4.29501C199.656 4.1505 199.81 4.05417 199.987 4.05417H201.167C201.337 4.05417 201.498 4.14248 201.587 4.29501L202.177 5.30654C202.266 5.45105 202.266 5.63569 202.177 5.78822L201.587 6.79976C201.498 6.94426 201.345 7.0406 201.167 7.0406ZM200.02 6.51877H201.143L201.7 5.55541L201.143 4.59205H200.02L199.462 5.55541L200.02 6.51877Z" fill="#2C163A"/>
<path d="M54.0066 32.353H52.8269C52.6572 32.353 52.4956 32.2647 52.4067 32.1121L51.8169 31.1006C51.728 30.9561 51.728 30.7715 51.8169 30.6189L52.4067 29.6074C52.4956 29.4629 52.6491 29.3665 52.8269 29.3665H54.0066C54.1763 29.3665 54.3379 29.4549 54.4267 29.6074L55.0166 30.6189C55.1055 30.7634 55.1055 30.9481 55.0166 31.1006L54.4267 32.1121C54.3379 32.2566 54.1843 32.353 54.0066 32.353ZM52.8511 31.8231H53.9743L54.5318 30.8598L53.9743 29.8964H52.8511L52.2936 30.8598L52.8511 31.8231Z" fill="#2C163A"/>
</g>
<defs>
<clipPath id="clip0_28_715">
<rect width="215" height="181" fill="white"/>
</clipPath>
</defs>
</svg>
