<svg width="356" height="130" viewBox="0 0 356 130" fill="none" xmlns="http://www.w3.org/2000/svg">
<g clip-path="url(#clip0_2515_6373)">
<path opacity="0.7" d="M-18.88 156.307C-70.8532 132.111 0.495119 83.8216 39.9243 77.2793C79.3534 70.737 116.953 95.5116 123.906 132.615C130.858 169.718 104.53 205.1 65.1012 211.642C25.6721 218.184 33.0931 180.502 -18.88 156.307Z" fill="#61AE45"/>
<path d="M501.698 58.9568C582.945 84.2755 489.202 168.648 433 185.832C376.797 203.016 316.433 174.073 298.171 121.186C279.91 68.2987 319.69 28.6963 369.596 9.18137C419.502 -10.3336 420.451 33.6382 501.698 58.9568Z" fill="#61AE45"/>
<path opacity="0.7" d="M355.768 68.1482C390.115 24.1855 428.262 98.6904 428.262 136.366C428.262 174.042 395.805 204.584 355.768 204.584C315.731 204.584 283.274 174.042 283.274 136.366C283.274 98.6904 321.421 112.111 355.768 68.1482Z" fill="#61AE45"/>
<mask id="mask0_2515_6373" style="mask-type:alpha" maskUnits="userSpaceOnUse" x="0" y="0" width="356" height="130">
<rect width="356" height="130" rx="9" fill="black"/>
</mask>
<g mask="url(#mask0_2515_6373)">
</g>
</g>
<defs>
<clipPath id="clip0_2515_6373">
<rect width="356" height="130" fill="white"/>
</clipPath>
</defs>
</svg>
