<svg width="272" height="100" viewBox="0 0 272 100" fill="none" xmlns="http://www.w3.org/2000/svg">
<g clip-path="url(#clip0_5_114)">
<path d="M241.51 30.3399C242.877 31.6844 243.795 34.291 243.981 36.1872C244.572 42.2945 243.468 49.1819 244.065 55.3716C245.714 60.3437 252.189 61.0033 254.429 56.1454C254.994 49.6702 253.941 42.5863 254.506 36.1872C254.987 30.7331 259.826 26.4713 265.454 28.1012C273.117 30.3209 271.313 39.1743 271.448 45.2245C271.679 55.6761 272.417 66.2037 271.679 76.6616C271.037 85.775 265.05 93.842 256.733 97.6662C248.846 101.294 237.127 101.078 230.723 94.3747C225.877 89.2948 228.656 79.6487 236.312 79.674C239.912 79.6867 242.877 82.4455 246.42 82.9338C250.668 83.5173 254.333 79.9023 254.891 75.8689C254.981 75.2283 254.968 75.2537 254.384 75.3678C253.331 75.5644 252.279 75.9957 251.194 76.0781C240.041 76.928 230.171 70.2626 227.405 59.5193C226.217 54.9023 226.391 40.5885 226.808 35.4135C227.347 28.7227 236.473 25.3869 241.517 30.359L241.51 30.3399Z" fill="#559DD2"/>
<path d="M17.4556 29.4394C29.8606 25.5644 43.5813 33.308 46.8093 45.7065C49.8705 57.4645 43.8701 69.7996 32.2672 73.9409C16.5443 79.5535 1.46312 68.3029 0.295133 52.3655C-0.622571 39.8338 0.911215 26.1796 0.384979 13.5337C1.92518 5.84094 12.9954 4.36961 16.3518 11.4472C16.5571 11.8721 17.4492 14.3836 17.4492 14.5992V29.433L17.4556 29.4394ZM22.8078 44.9391C15.5046 46.1377 14.8372 56.6717 21.9607 58.6948C27.5824 60.293 31.8501 56.0312 31.0671 50.463C30.5601 46.848 26.2861 44.3683 22.8078 44.9328V44.9391Z" fill="#61AE45"/>
<path d="M212.009 45.2372C211.579 52.4417 212.58 60.274 212.028 67.4087C211.31 76.6362 198.712 78.4056 195.426 69.9138L195.227 23.4526C197.262 8.80264 209.551 -1.38254 224.684 0.15221C231.037 0.79909 234.624 8.9168 230.536 14.0348C226.513 19.0703 221.623 15.8042 217.111 17.7194C212.888 19.5142 211.765 24.1058 211.618 28.2851H218.048C218.176 28.2851 220.159 28.8432 220.474 28.9701C226.834 31.4307 227.713 41.1847 221.321 44.2415C220.929 44.4318 218.632 45.2372 218.433 45.2372H212.003H212.009Z" fill="#559DD2"/>
<path d="M119.116 69.2352C118.769 71.1187 117.915 72.793 115.682 74.036C111.825 76.1796 106.473 74.8668 104.079 71.1948C102.135 68.2141 102.866 63.7303 102.866 60.3247C102.866 49.7907 102.866 39.2631 102.866 28.7291C102.866 24.1629 102.866 19.603 102.866 15.0368C104.233 7.4518 113.494 4.65499 118.429 11.1492C121.362 15.0114 120.232 21.4802 120.091 25.983C119.898 32.103 119.744 38.223 119.52 44.343C119.488 45.1991 119.462 46.0807 119.802 46.8671C120.656 48.8267 125.931 50.241 127.837 51.1289C129.743 52.0167 131.662 52.8983 133.568 53.7862C133.536 56.9381 136.16 58.7202 139.247 58.3207C141.821 57.9909 143.855 55.5492 144.997 53.412C145.408 53.1266 146.384 53.3676 146.897 53.5198C148.893 54.1159 158.198 60.4389 160.104 62.037C161.118 62.8869 161.766 63.4576 161.105 64.8909C159.552 68.2839 154.386 63.3245 152.461 62.2654C152.089 62.0624 151.139 61.3965 150.78 61.6121C150.202 61.9546 150.317 62.462 150.581 62.9693C151.498 64.7577 157.287 66.5906 157.037 69.3113C155.137 73.3004 151.254 68.9117 148.649 67.5609C147.475 66.9521 146.576 68.1063 147.064 68.7532C147.808 69.7362 151.896 71.3026 152.307 72.8564V73.4906C149.81 77.207 148.046 73.554 145.318 72.4125C144.689 71.0426 144.76 69.8884 143.361 68.9561C141.801 67.916 139.722 68.6771 139.157 68.2902C138.676 67.9541 138.246 66.3052 136.77 65.8359C135.166 65.3222 133.895 66.191 133.119 66.0008C132.592 65.8739 132.053 64.9036 131.437 64.5548C129.762 63.6162 126.804 63.5084 126.207 65.6583L119.59 62.5825C119.263 64.8592 119.481 67.174 119.103 69.2415L119.116 69.2352Z" fill="#307F74"/>
<path d="M79.712 57.0586C80.912 55.7966 81.2714 53.3168 81.3998 51.5982C81.8169 45.9285 80.02 38.8572 81.5025 33.5934C83.6395 26.002 94.9921 25.8245 97.4051 33.086C98.695 36.9673 98.4704 48.3194 98.1687 52.7588C96.2499 80.8727 57.4368 82.8894 51.9498 57.2045C50.9294 52.4163 50.8524 40.0558 51.3722 35.0266C52.3284 25.8371 67.5187 24.6512 68.5327 36.1872C69.0204 41.7428 68.0706 47.9769 68.5134 53.5452C68.937 58.8914 76.0989 60.8574 79.712 57.0649V57.0586Z" fill="#61AE45"/>
<path d="M141.051 39.4597L152.949 28.2915C159.276 22.9769 168.716 29.2301 165.7 37.0434C164.34 40.5632 159.738 43.3156 157.152 45.9602C155.708 46.3661 147.763 43.3409 145.44 43.0238C142.219 42.5926 140.755 44.0005 138.721 46.2075C137.527 47.5013 136.334 50.8562 134.53 51.3699C132.291 52.0104 126.553 48.4145 124.365 47.5203C122.799 46.8798 123.512 33.9485 123.499 32.3186C123.454 27.0548 123.505 21.7719 123.89 16.5145C124.782 4.17935 140.954 5.54287 141.192 17.5799C141.333 24.8605 141.063 32.1601 141.063 39.4597H141.051Z" fill="#307F74"/>
<path d="M167.144 46.0299C167.812 48.3955 170.366 50.983 170.988 53.2344C171.149 53.8242 171.181 54.3316 170.886 54.8833C170.327 55.9488 162.19 58.4665 160.65 59.4495L159.783 59.3163C156.671 57.2679 153.59 55.0609 150.375 53.1773C147.937 51.744 146.595 50.1586 143.791 52.0104C141.988 53.2027 141.153 56.342 138.503 56.4561C136.629 56.5322 135.211 55.4287 135.949 53.5325C136.648 51.7504 140.454 46.7783 142.013 45.6367C144.458 43.8546 148.675 46.0173 151.479 46.6895C153.27 47.1144 155.856 47.9516 157.608 47.9833C160.707 48.0467 164.057 46.2963 167.138 46.0426L167.144 46.0299Z" fill="#A9C131"/>
<path d="M154.309 72.5964C157.223 72.9515 159.405 70.9665 159.032 68.0175C162.023 67.2374 164 66.3749 163.197 62.8488C163.024 62.0878 162.055 61.5868 162.883 60.8447C165.392 58.5934 168.248 62.8869 168.646 65.17C169.698 71.2202 164.442 75.9386 158.442 75.2537C156.889 75.0761 154.54 74.3785 154.316 72.5964H154.309Z" fill="#307F74"/>
<path d="M141.718 75.945C139.716 77.6573 136.308 75.9957 137.425 73.4462C137.63 72.9769 138.092 73.0213 138.323 72.7106C138.939 71.8924 139.331 70.4275 140.877 70.2689C144.035 69.9518 143.592 74.3468 141.724 75.945H141.718Z" fill="#A9C131"/>
<path d="M135.089 67.6433C136.16 67.4531 137.104 68.4551 137.758 69.1337L137.874 69.6347C136.86 71.7593 136.109 74.5624 133.125 73.6809C130.141 72.7993 133.022 68.0112 135.089 67.6433Z" fill="#A9C131"/>
<path d="M128.062 66.1149C133.561 64.4977 131.277 73.1291 127.035 70.4528C125.36 69.3937 126.63 66.5398 128.062 66.1149Z" fill="#A9C131"/>
<path d="M145.671 74.2009C145.735 74.2453 146.351 75.2537 146.499 75.4883C147.712 77.4036 144.407 76.8645 143.387 76.446C143.361 75.3044 144.381 73.3257 145.671 74.2009Z" fill="#A9C131"/>
<path d="M189.747 35.9272C189.747 31.3949 186.029 27.7207 181.442 27.7207C176.856 27.7207 173.138 31.3949 173.138 35.9272V67.1677C173.138 71.7 176.856 75.3742 181.442 75.3742C186.029 75.3742 189.747 71.7 189.747 67.1677V35.9272Z" fill="#A6BE28"/>
<path d="M181.442 23.4843C186.918 23.4843 191.357 19.0974 191.357 13.6859C191.357 8.27448 186.918 3.88762 181.442 3.88762C175.966 3.88762 171.527 8.27448 171.527 13.6859C171.527 19.0974 175.966 23.4843 181.442 23.4843Z" fill="#A9C131"/>
</g>
<defs>
<clipPath id="clip0_5_114">
<rect width="272" height="100" fill="white"/>
</clipPath>
</defs>
</svg>
